<svg width="686" height="212" viewBox="0 0 686 212" fill="none" xmlns="http://www.w3.org/2000/svg">
<path d="M27.7 70.6C32 70 40 67.9 44.6 60.7V72H2.9V6.4H10V70.6C14.8 70.7 22.4 70.9 24.6 70.9C24.6 70.9 24.9 70.9 25.4 70.9C26 70.8 26.6 70.8 27.2 70.7C27.4 70.7 27.5 70.6 27.7 70.6ZM100.235 50.5H101.035C97.8352 57.4 93.0352 64.2 86.6352 68.5C86.4352 68.6 86.2352 68.7 86.0352 68.8C82.0352 71.4 77.4352 72.9 72.3352 72.9C66.6352 72.9 61.8352 71.4 57.9352 68.8C52.0352 64.8 48.6352 58.2 48.6352 50.2C48.6352 36.8 60.4352 25 72.8352 23.8C72.8352 23.8 76.1352 23.5 78.1352 23.9C79.8352 24 82.0352 24.5 84.3352 25.6C84.4352 25.6 84.6352 25.7 84.7352 25.8C84.9352 25.9 85.1352 26 85.2352 26C85.8352 26.4 86.3352 26.7 86.8352 27.1C86.9352 27.1 86.9352 27.1 86.9352 27.1C87.9352 27.9 88.7352 28.8 89.4352 29.7C89.4352 29.7 89.4352 29.7 89.4352 29.8C90.9352 31.8 92.0352 34.5 92.3352 38.1C92.3352 38.2 92.3352 38.2 92.3352 38.3C92.3352 39.2 92.2352 42.9 86.9352 42.9H54.4352C54.3352 44.1 54.2352 45.4 54.2352 46.7C54.2352 58.3 64.3352 67.4 77.1352 67.4C88.1352 67.4 95.0352 60.9 100.235 50.5ZM54.6352 41.5C54.6352 41.7 54.6352 42 54.5352 42.2H81.4352C82.9352 42.2 84.2352 41 84.2352 39.5V39.4C84.1352 35.7 83.3352 32.9 82.1352 31C82.1352 30.9 82.1352 30.9 82.0352 30.9C80.9352 29 79.4352 27.8 77.9352 27.1C77.8352 27 77.7352 27 77.6352 26.9C77.4352 26.8 77.1352 26.7 76.9352 26.6C75.6352 26.1 74.0352 25.8 72.2352 25.8C64.7352 25.8 58.7352 29.4 55.9352 36.7V36.8C55.6352 37.4 55.4352 38 55.3352 38.7C55.0352 39.7 54.6352 40.9 54.6352 41.5ZM122.224 65.6L122.724 66.1C119.724 69.6 115.924 72.1 111.724 72.1C105.424 72.1 102.624 68.1 102.624 59V25.1H92.2242V24.5C94.5242 24.5 96.8242 24.1 98.8242 23.5C107.624 20.6 109.424 12.7 109.424 12.7H109.724V24.5H121.724V25.1H109.724V58.7C109.724 65.5 111.924 69.1 115.924 69.1C118.124 69.1 120.324 67.9 122.224 65.6ZM140.246 0.599995L138.246 26.4H132.746L130.746 0.599995H140.246ZM169.907 44.3C177.907 47 186.107 49.9 186.107 58.4C186.107 66.8 178.707 72.9 169.207 72.9C159.407 72.9 154.707 70.6 150.907 69.5C150.807 69.5 150.807 69.5 150.707 69.4V59.8C150.707 59.8 162.707 75.3 176.907 70.6C180.207 68.9 181.507 65.9 181.507 62.6C181.507 56.1 174.107 53.6 166.407 51.1C158.507 48.4 150.507 45.4 150.507 37.8C150.507 28.1 160.107 23.7 167.907 23.7C175.607 23.7 178.207 24.5 183.507 25.3H183.607H183.807C183.807 25.4 183.807 25.4 183.807 25.4H184.307V25.6V34.5C175.507 25.2 165.607 24.5 164.807 24.7C164.707 24.7 164.707 24.7 164.707 24.7C158.807 25.5 155.007 28.5 155.007 32.7C155.007 39.2 162.407 41.6 169.907 44.3ZM268.627 68.6C276.127 64.4 280.127 57.7 280.127 57.7L279.527 68.7C274.427 71 265.627 72.9 255.427 72.9C235.127 72.9 219.627 58.6 219.627 39.2C219.627 19.4 236.327 5.4 255.827 5.4C263.727 5.4 274.227 7.3 279.327 9.6L279.927 20.5C279.627 20 277.027 15.9 272.327 12.2C268.827 9.5 264.127 7 258.427 6.5C258.327 6.5 258.327 6.5 258.227 6.5C257.527 6.4 256.727 6.4 256.027 6.4C239.027 6.4 228.127 19.7 228.127 39.2C228.127 58.6 238.027 71.9 255.227 71.9C256.327 71.9 257.327 71.9 258.327 71.8C259.227 71.7 260.027 71.6 260.827 71.5C261.127 71.4 261.527 71.3 261.827 71.3C261.927 71.2 262.027 71.2 262.127 71.2C264.527 70.6 266.627 69.8 268.527 68.7C268.627 68.6 268.627 68.6 268.627 68.6ZM314.833 24.5C315.133 24.5 315.533 24.5 315.833 24.5V31.3C313.033 30.8 309.633 30 305.833 30C299.233 30 295.533 36.5 295.533 51.2V56.3C295.533 66.1 295.533 72.1 295.533 72.1H288.533C288.533 72.1 288.433 61.3 288.433 57.2C288.433 57 288.433 57 288.433 57C288.433 56.9 288.433 56.3 288.433 56.3C288.433 56.3 288.433 55.7 288.533 55V24.5H295.433V36.7C300.833 29.4 308.333 24.5 314.833 24.5ZM368.888 50.5H369.688C366.488 57.4 361.688 64.2 355.288 68.5C355.088 68.6 354.888 68.7 354.688 68.8C350.688 71.4 346.088 72.9 340.988 72.9C335.288 72.9 330.488 71.4 326.588 68.8C320.688 64.8 317.288 58.2 317.288 50.2C317.288 36.8 329.088 25 341.488 23.8C341.488 23.8 344.788 23.5 346.788 23.9C348.488 24 350.688 24.5 352.988 25.6C353.088 25.6 353.288 25.7 353.388 25.8C353.588 25.9 353.788 26 353.888 26C354.488 26.4 354.988 26.7 355.488 27.1C355.588 27.1 355.588 27.1 355.588 27.1C356.588 27.9 357.388 28.8 358.088 29.7C358.088 29.7 358.088 29.7 358.088 29.8C359.588 31.8 360.688 34.5 360.988 38.1C360.988 38.2 360.988 38.2 360.988 38.3C360.988 39.2 360.888 42.9 355.588 42.9H323.088C322.988 44.1 322.888 45.4 322.888 46.7C322.888 58.3 332.988 67.4 345.788 67.4C356.788 67.4 363.688 60.9 368.888 50.5ZM323.288 41.5C323.288 41.7 323.288 42 323.188 42.2H350.088C351.588 42.2 352.888 41 352.888 39.5V39.4C352.788 35.7 351.988 32.9 350.788 31C350.788 30.9 350.788 30.9 350.688 30.9C349.588 29 348.088 27.8 346.588 27.1C346.488 27 346.388 27 346.288 26.9C346.088 26.8 345.788 26.7 345.588 26.6C344.288 26.1 342.688 25.8 340.888 25.8C333.388 25.8 327.387 29.4 324.588 36.7V36.8C324.288 37.4 324.088 38 323.988 38.7C323.688 39.7 323.288 40.9 323.288 41.5ZM410.373 67.9L410.973 68.4C408.573 70.6 405.273 72.8 402.973 72.8C399.373 72.8 397.573 70.3 397.573 66.1C397.573 63.8 397.773 60.9 397.973 58.9C395.973 63 387.273 72.9 379.373 72.9C371.773 72.9 367.173 68 367.173 62.3C367.173 56 373.073 49.9 389.973 43.2C390.173 43.1 390.473 43 390.773 42.9L392.073 42.4C392.273 42.3 392.373 42.3 392.473 42.2C395.773 40.8 398.073 37.6 398.173 33.9C398.173 33.8 398.173 33.7 398.173 33.6V33.4C398.173 33.2 398.173 33 398.173 32.8C398.173 32.8 398.173 32.8 398.173 32.7C398.173 32.5 398.073 32.3 398.073 32.2C398.073 32.1 398.073 32.1 398.073 32C397.973 31.8 397.973 31.6 397.973 31.4C397.873 31.3 397.873 31.1 397.773 30.9C397.373 29.7 396.773 28.6 395.973 27.6C395.873 27.5 395.873 27.4 395.773 27.4C395.573 27.1 395.473 27 395.373 26.9H395.273C394.573 26 393.673 25.5 392.673 25.1C391.473 24.6 390.073 24.4 388.473 24.4C387.873 24.4 387.173 24.5 386.573 24.6C386.173 24.6 385.773 24.7 385.473 24.8C384.173 25.1 383.073 25.7 382.173 26.4C378.973 28.9 377.773 32.8 376.273 34.9L371.573 30C374.373 28.2 379.573 25.5 384.873 24.2C385.173 24.1 389.973 22.9 394.973 24C400.673 25.1 404.973 28.4 405.373 32.3C405.373 32.4 405.373 32.4 405.373 32.4C406.073 37.8 398.673 40.5 398.673 40.5L390.973 43.8C377.073 49.7 373.773 52.5 373.773 59.5C373.773 64.6 378.273 68.7 384.073 68.7C390.573 68.7 397.173 60 398.073 56.9C398.073 56.9 399.073 54.1 402.273 53.9C405.473 53.7 405.273 57.1 405.273 57.1C405.173 59 405.173 60.5 405.173 61.5C405.173 66.9 405.873 69.6 407.773 69.6C408.573 69.6 409.573 68.8 410.373 67.9ZM440.193 65.6L440.693 66.1C437.693 69.6 433.893 72.1 429.693 72.1C423.393 72.1 420.593 68.1 420.593 59V25.1H410.193V24.5C412.493 24.5 414.793 24.1 416.793 23.5C425.593 20.6 427.393 12.7 427.393 12.7H427.693V24.5H439.693V25.1H427.693V58.7C427.693 65.5 429.893 69.1 433.893 69.1C436.093 69.1 438.293 67.9 440.193 65.6ZM495.059 50.5H495.859C492.659 57.4 487.859 64.2 481.459 68.5C481.259 68.6 481.059 68.7 480.859 68.8C476.859 71.4 472.259 72.9 467.159 72.9C461.459 72.9 456.659 71.4 452.759 68.8C446.859 64.8 443.459 58.2 443.459 50.2C443.459 36.8 455.259 25 467.659 23.8C467.659 23.8 470.959 23.5 472.959 23.9C474.659 24 476.859 24.5 479.159 25.6C479.259 25.6 479.459 25.7 479.559 25.8C479.759 25.9 479.959 26 480.059 26C480.659 26.4 481.159 26.7 481.659 27.1C481.759 27.1 481.759 27.1 481.759 27.1C482.759 27.9 483.559 28.8 484.259 29.7C484.259 29.7 484.259 29.7 484.259 29.8C485.759 31.8 486.859 34.5 487.159 38.1C487.159 38.2 487.159 38.2 487.159 38.3C487.159 39.2 487.059 42.9 481.759 42.9H449.259C449.159 44.1 449.059 45.4 449.059 46.7C449.059 58.3 459.159 67.4 471.959 67.4C482.959 67.4 489.859 60.9 495.059 50.5ZM449.459 41.5C449.459 41.7 449.459 42 449.359 42.2H476.259C477.759 42.2 479.059 41 479.059 39.5V39.4C478.959 35.7 478.159 32.9 476.959 31C476.959 30.9 476.959 30.9 476.859 30.9C475.759 29 474.259 27.8 472.759 27.1C472.659 27 472.559 27 472.459 26.9C472.259 26.8 471.959 26.7 471.759 26.6C470.459 26.1 468.859 25.8 467.059 25.8C459.559 25.8 453.559 29.4 450.759 36.7V36.8C450.459 37.4 450.259 38 450.159 38.7C449.859 39.7 449.459 40.9 449.459 41.5ZM26 147.1C35.8 151.3 45.8 155.5 45.8 165.7C45.8 176.6 36.5 183.9 25.1 183.9C14.9 183.9 9.8 182.9 3.1 181.1C2.2 180.9 2.2 180.7 2.2 180.1C2.2 177.6 2.1 171.6 2.1 166C4.1 171.8 7.1 175.6 10.2 178.1C11 178.8 11.9 179.4 12.7 179.9C13 180.1 13.3 180.2 13.6 180.4C13.8 180.5 14 180.6 14.2 180.7C14.4 180.8 14.6 180.9 14.8 181C15.9 181.5 16.9 181.8 17.9 182.1C20 182.7 22.4 182.9 25.1 182.9C35.6 182.9 40.1 177.7 40.1 170.2C40.1 160.9 30.6 157.1 21 153.1C10.9 148.9 0.6 144.5 0.6 134.4C0.6 123.2 10.7 116.4 22.7 116.4C32.1 116.4 37.9 117.7 43.3 118.9C43.6 119 43.8 119 43.9 119.1V131.9C42.6 128.1 40.6 125.3 38.4 123.3C33 118.4 26.2 117.6 23.7 117.4C23.5 117.4 23.3 117.4 23.2 117.4C22.9 117.4 22.7 117.4 22.7 117.4C11.1 117.4 6.5 122.8 6.5 130C6.5 139 16.2 143 26 147.1ZM77.4438 134.7C90.8438 134.7 100.744 144.1 100.744 158.6C100.744 166.6 96.2438 175 89.1438 179.8C85.3438 182.4 80.8438 183.9 75.9438 183.9C70.7438 183.9 65.9438 182.5 62.1438 179.8C56.2438 175.8 52.5438 168.9 52.5438 160.2C52.5438 146.6 62.9438 134.7 77.4438 134.7ZM86.3438 179.8C90.7438 176.1 93.0438 169.3 93.0438 160.1C93.0438 148.3 86.7438 135.6 76.3438 135.6C65.2438 135.6 60.3438 144.8 60.3438 158.6C60.3438 166.8 63.4438 175.4 69.0438 179.8C71.4438 181.7 74.2438 182.9 77.5438 182.9C81.0438 182.9 84.0438 181.8 86.3438 179.8ZM165.134 134.7C173.634 134.7 180.534 139 180.534 153.9V183.1H173.434V153C173.334 141.2 167.734 137.5 162.034 137.5C156.334 137.5 152.534 139.9 148.234 145.4C148.934 147.7 149.334 150.5 149.334 153.9V183.1H142.234V153C142.134 141.2 136.534 137.5 130.734 137.5C124.834 137.5 120.934 140.1 116.434 146.1V183.1H109.334V135.5H116.434V144.9C121.234 138.5 126.634 134.7 133.834 134.7C140.234 134.7 145.634 137.1 148.034 144.5C152.734 138.4 158.034 134.7 165.134 134.7ZM240.274 161.5H241.074C237.874 168.4 233.074 175.2 226.674 179.5C226.474 179.6 226.274 179.7 226.074 179.8C222.074 182.4 217.474 183.9 212.374 183.9C206.674 183.9 201.874 182.4 197.974 179.8C192.074 175.8 188.674 169.2 188.674 161.2C188.674 147.8 200.474 136 212.874 134.8C212.874 134.8 216.174 134.5 218.174 134.9C219.874 135 222.074 135.5 224.374 136.6C224.474 136.6 224.674 136.7 224.774 136.8C224.974 136.9 225.174 137 225.274 137C225.874 137.4 226.374 137.7 226.874 138.1C226.974 138.1 226.974 138.1 226.974 138.1C227.974 138.9 228.774 139.8 229.474 140.7C229.474 140.7 229.474 140.7 229.474 140.8C230.974 142.8 232.074 145.5 232.374 149.1C232.374 149.2 232.374 149.2 232.374 149.3C232.374 150.2 232.274 153.9 226.974 153.9H194.474C194.374 155.1 194.274 156.4 194.274 157.7C194.274 169.3 204.374 178.4 217.174 178.4C228.174 178.4 235.074 171.9 240.274 161.5ZM194.674 152.5C194.674 152.7 194.674 153 194.574 153.2H221.474C222.974 153.2 224.274 152 224.274 150.5V150.4C224.174 146.7 223.374 143.9 222.174 142C222.174 141.9 222.174 141.9 222.074 141.9C220.974 140 219.474 138.8 217.974 138.1C217.874 138 217.774 138 217.674 137.9C217.474 137.8 217.174 137.7 216.974 137.6C215.674 137.1 214.074 136.8 212.274 136.8C204.774 136.8 198.774 140.4 195.974 147.7V147.8C195.674 148.4 195.474 149 195.374 149.7C195.074 150.7 194.674 151.9 194.674 152.5ZM262.263 176.6L262.763 177.1C259.763 180.6 255.963 183.1 251.763 183.1C245.463 183.1 242.663 179.1 242.663 170V136.1H232.263V135.5C234.563 135.5 236.863 135.1 238.863 134.5C247.663 131.6 249.463 123.7 249.463 123.7H249.763V135.5H261.763V136.1H249.763V169.7C249.763 176.5 251.963 180.1 255.963 180.1C258.163 180.1 260.363 178.9 262.263 176.6ZM293.985 134.7C302.485 134.7 309.385 139 309.385 153.9V183.1H302.085C302.185 180.2 302.185 177 302.185 175.2V153C302.185 141.2 296.685 137.5 290.885 137.5C284.985 137.5 281.085 140.1 276.685 146V183.1H269.585C269.585 180.1 269.585 176.9 269.585 175V110C269.585 109.3 269.585 108.7 269.585 108.1H276.685V144.7C281.485 138.5 286.785 134.7 293.985 134.7ZM323.283 126.6C320.483 126.6 318.383 124.4 318.383 121.6C318.383 118.9 320.483 116.6 323.283 116.6C325.983 116.6 328.283 118.9 328.283 121.6C328.283 124.4 325.983 126.6 323.283 126.6ZM326.883 183.1H319.683V135.6H326.883V183.1ZM362.252 134.7C370.752 134.7 377.752 139 377.752 153.9V183.1H370.652V153C370.552 141.2 364.952 137.5 359.152 137.5C353.252 137.5 349.352 140.1 344.852 146.1V183.1H337.752V135.5H344.852V144.9C349.652 138.5 355.052 134.7 362.252 134.7ZM428.742 142.8C425.942 142.3 422.242 140.6 418.442 140.6C418.242 140.6 418.042 140.7 417.742 140.7C418.042 141 418.342 141.2 418.642 141.5C421.442 144.4 423.042 148.2 423.042 152.6C423.042 162.1 415.442 168.2 404.942 168.8C402.542 169.7 400.942 171 400.942 172.7C400.942 176.3 404.442 176.7 410.142 176.8H413.642C424.442 176.8 428.542 181.7 428.542 187C428.542 190.9 426.642 194.8 423.642 198.3C417.342 205.7 405.842 211.2 395.842 211.2C385.842 211.3 380.242 205.9 380.242 199.2C380.242 192.8 386.442 187.1 393.142 184C393.142 184 393.142 184 393.242 184C395.342 182.9 398.042 182.1 400.142 181.5C397.442 180.5 395.942 178.9 395.942 176.4C395.942 173.5 398.742 170.7 403.142 168.9C402.642 168.9 402.042 168.9 401.342 168.8C400.342 168.8 399.242 168.6 398.142 168.4C398.042 168.4 397.942 168.4 397.842 168.4C397.642 168.3 397.342 168.3 397.142 168.2C396.842 168.2 396.642 168.1 396.442 168C396.342 168 396.342 168 396.342 168C396.042 167.9 395.642 167.8 395.242 167.7C389.142 165.5 385.242 160.4 385.242 152.8C385.242 145.6 390.142 139.6 397.242 137C397.342 137 397.542 136.9 397.942 136.8C399.242 136.4 402.742 135.7 407.642 136.5C407.942 136.5 408.142 136.5 408.442 136.6C409.642 136.8 410.742 137.1 411.842 137.4C411.942 137.4 412.042 137.5 412.142 137.5C412.742 137.7 413.242 137.9 413.742 138.2C414.842 138.7 415.842 139.3 416.842 139.9C420.442 137.4 424.242 136 427.742 136C428.042 136 428.342 136 428.742 136V142.8ZM407.942 182.8H407.842C405.342 182.7 403.142 182.4 401.342 181.9C400.142 182.1 399.042 182.5 398.042 182.8C397.942 182.8 397.742 182.9 397.642 183C395.642 183.6 394.142 184.3 393.442 184.6C387.942 187.3 384.342 191.2 384.342 195.5C384.342 202.2 390.842 206 401.842 206C410.342 206 418.842 202.7 423.142 197.8C424.742 195.8 425.742 193.5 425.742 191.1C425.742 185 421.042 182.8 410.342 182.8H410.642C409.942 182.8 408.842 182.8 408.242 182.8C408.142 182.8 408.042 182.8 407.942 182.8ZM416.042 152.6C416.042 149.2 415.242 145.8 413.842 143.1C413.742 142.9 413.642 142.7 413.542 142.5C413.342 142.1 413.042 141.7 412.842 141.3C412.242 140.5 411.642 139.8 410.942 139.2C409.242 137.6 407.042 136.6 404.442 136.6C396.342 136.6 392.342 141.8 392.342 151.8C392.342 161 396.242 168 404.042 168C405.042 168 405.942 167.9 406.742 167.7C406.842 167.7 406.842 167.7 406.842 167.7C412.742 166.5 416.042 161.3 416.042 152.6ZM522.63 151.9C522.93 151.9 523.23 152.2 523.23 152.7C523.13 161.7 523.13 171.9 523.13 183.1C523.13 183.7 522.83 183.6 522.43 183.2C521.33 182.4 519.63 181.4 518.23 180.8C513.03 182.6 505.43 183.9 496.93 183.9C476.63 183.9 461.13 169.6 461.13 150.2C461.13 130.4 477.83 116.4 497.33 116.4C505.23 116.4 515.73 118.3 520.83 120.6L521.43 131.5C521.13 131 518.83 127.4 514.73 123.9C514.63 123.9 514.63 123.9 514.63 123.9C514.43 123.7 514.13 123.4 513.83 123.2C510.33 120.5 505.63 118 499.93 117.5C499.93 117.5 499.93 117.5 499.83 117.5H499.73C499.43 117.4 499.03 117.4 498.73 117.4C498.33 117.4 497.93 117.4 497.53 117.4C496.93 117.4 496.43 117.4 495.93 117.4C495.43 117.4 494.93 117.5 494.43 117.5C480.73 118.9 471.53 129.5 469.83 145C469.83 145.5 469.73 146.1 469.73 146.6C469.63 147.8 469.63 149 469.63 150.2C469.63 156.3 470.53 161.7 472.43 166.4C473.03 167.8 473.63 169.1 474.33 170.4C474.53 170.8 474.83 171.2 475.03 171.6C475.83 172.8 476.73 173.9 477.63 174.9C477.93 175.3 478.23 175.6 478.53 175.9C483.13 180.4 489.23 182.9 496.73 182.9C497.13 182.9 497.53 182.9 497.93 182.9C498.63 182.9 499.23 182.9 499.93 182.8C500.73 182.7 501.43 182.7 502.23 182.6C501.43 182.7 500.73 182.7 499.93 182.8C500.73 182.7 501.53 182.6 502.33 182.5C502.63 182.4 503.03 182.3 503.33 182.3C503.43 182.2 503.53 182.2 503.63 182.2C506.03 181.6 508.13 180.8 510.03 179.7C510.13 179.6 510.13 179.6 510.13 179.6C512.43 178.3 514.43 176.8 516.03 175.3C516.03 173.6 516.03 170.7 516.03 165.4C516.03 161.3 515.93 155.1 515.93 152.8H491.33V151.9H515.83H522.63ZM512.23 179.5C511.73 179.7 511.33 179.9 510.93 180.1C511.33 179.9 511.73 179.7 512.23 179.5ZM508.43 181.1C507.93 181.2 507.33 181.4 506.73 181.6C507.33 181.4 507.93 181.3 508.43 181.1ZM559.462 135.5C559.762 135.5 560.162 135.5 560.462 135.5V142.3C557.662 141.8 554.262 141 550.462 141C543.862 141 540.162 147.5 540.162 162.2V167.3C540.162 177.1 540.162 183.1 540.162 183.1H533.162C533.162 183.1 533.062 172.3 533.062 168.2C533.062 168 533.062 168 533.062 168C533.062 167.9 533.062 167.3 533.062 167.3C533.062 167.3 533.062 166.7 533.162 166V135.5H540.062V147.7C545.462 140.4 552.962 135.5 559.462 135.5ZM613.516 161.5H614.316C611.116 168.4 606.316 175.2 599.916 179.5C599.716 179.6 599.516 179.7 599.316 179.8C595.316 182.4 590.716 183.9 585.616 183.9C579.916 183.9 575.116 182.4 571.216 179.8C565.316 175.8 561.916 169.2 561.916 161.2C561.916 147.8 573.716 136 586.116 134.8C586.116 134.8 589.416 134.5 591.416 134.9C593.116 135 595.316 135.5 597.616 136.6C597.716 136.6 597.916 136.7 598.016 136.8C598.216 136.9 598.416 137 598.516 137C599.116 137.4 599.616 137.7 600.116 138.1C600.216 138.1 600.216 138.1 600.216 138.1C601.216 138.9 602.016 139.8 602.716 140.7C602.716 140.7 602.716 140.7 602.716 140.8C604.216 142.8 605.316 145.5 605.616 149.1C605.616 149.2 605.616 149.2 605.616 149.3C605.616 150.2 605.516 153.9 600.216 153.9H567.716C567.616 155.1 567.516 156.4 567.516 157.7C567.516 169.3 577.616 178.4 590.416 178.4C601.416 178.4 608.316 171.9 613.516 161.5ZM567.916 152.5C567.916 152.7 567.916 153 567.816 153.2H594.716C596.216 153.2 597.516 152 597.516 150.5V150.4C597.416 146.7 596.616 143.9 595.416 142C595.416 141.9 595.416 141.9 595.316 141.9C594.216 140 592.716 138.8 591.216 138.1C591.116 138 591.016 138 590.916 137.9C590.716 137.8 590.416 137.7 590.216 137.6C588.916 137.1 587.316 136.8 585.516 136.8C578.016 136.8 572.016 140.4 569.216 147.7V147.8C568.916 148.4 568.716 149 568.616 149.7C568.316 150.7 567.916 151.9 567.916 152.5ZM655.002 178.9L655.602 179.4C653.202 181.6 649.902 183.8 647.602 183.8C644.002 183.8 642.202 181.3 642.202 177.1C642.202 174.8 642.402 171.9 642.602 169.9C640.602 174 631.902 183.9 624.002 183.9C616.402 183.9 611.802 179 611.802 173.3C611.802 167 617.702 160.9 634.602 154.2C634.802 154.1 635.102 154 635.402 153.9L636.702 153.4C636.902 153.3 637.002 153.3 637.102 153.2C640.402 151.8 642.702 148.6 642.802 144.9C642.802 144.8 642.802 144.7 642.802 144.6V144.4C642.802 144.2 642.802 144 642.802 143.8C642.802 143.8 642.802 143.8 642.802 143.7C642.802 143.5 642.702 143.3 642.702 143.2C642.702 143.1 642.702 143.1 642.702 143C642.602 142.8 642.602 142.6 642.602 142.4C642.502 142.3 642.502 142.1 642.402 141.9C642.002 140.7 641.402 139.6 640.602 138.6C640.502 138.5 640.502 138.4 640.402 138.4C640.202 138.1 640.102 138 640.002 137.9H639.902C639.202 137 638.302 136.5 637.302 136.1C636.102 135.6 634.702 135.4 633.102 135.4C632.502 135.4 631.802 135.5 631.202 135.6C630.802 135.6 630.402 135.7 630.102 135.8C628.802 136.1 627.702 136.7 626.802 137.4C623.602 139.9 622.402 143.8 620.902 145.9L616.202 141C619.002 139.2 624.202 136.5 629.502 135.2C629.802 135.1 634.602 133.9 639.602 135C645.302 136.1 649.602 139.4 650.002 143.3C650.002 143.4 650.002 143.4 650.002 143.4C650.702 148.8 643.302 151.5 643.302 151.5L635.602 154.8C621.702 160.7 618.402 163.5 618.402 170.5C618.402 175.6 622.902 179.7 628.702 179.7C635.202 179.7 641.802 171 642.702 167.9C642.702 167.9 643.702 165.1 646.902 164.9C650.102 164.7 649.902 168.1 649.902 168.1C649.802 170 649.802 171.5 649.802 172.5C649.802 177.9 650.502 180.6 652.402 180.6C653.202 180.6 654.202 179.8 655.002 178.9ZM684.822 176.6L685.322 177.1C682.322 180.6 678.522 183.1 674.322 183.1C668.022 183.1 665.222 179.1 665.222 170V136.1H654.822V135.5C657.122 135.5 659.422 135.1 661.422 134.5C670.222 131.6 672.022 123.7 672.022 123.7H672.322V135.5H684.322V136.1H672.322V169.7C672.322 176.5 674.522 180.1 678.522 180.1C680.722 180.1 682.922 178.9 684.822 176.6Z" fill="white"/>
</svg>
