<svg width="522" height="228" viewBox="0 0 522 228" fill="none" xmlns="http://www.w3.org/2000/svg">
<path d="M46.08 20.68C88.98 20.68 125.72 49.28 125.72 92.84C125.72 135.52 91.84 164.78 46.96 164.78C46.3 164.78 45.2 164.78 44.1 164.78L0.980001 164.34V20.9H25.84C33.76 20.9 42.78 20.68 46.08 20.68ZM47.4 162.8C85.02 162.8 107.24 135.52 107.24 92.84C107.24 49.94 83.04 22.44 45.86 22.44H17.48V161.92C23.86 162.14 38.82 162.8 47.4 162.8ZM151.955 40.92C145.795 40.92 141.175 36.08 141.175 29.92C141.175 23.98 145.795 18.92 151.955 18.92C157.895 18.92 162.955 23.98 162.955 29.92C162.955 36.08 157.895 40.92 151.955 40.92ZM159.875 165.22H144.035V60.72H159.875V165.22ZM273.106 76.56C266.946 75.46 258.806 71.72 250.446 71.72C250.006 71.72 249.566 71.94 248.906 71.94C249.566 72.6 250.226 73.04 250.886 73.7C257.046 80.08 260.566 88.44 260.566 98.12C260.566 119.02 243.846 132.44 220.746 133.76C215.466 135.74 211.946 138.6 211.946 142.34C211.946 150.26 219.646 151.14 232.186 151.36H239.886C263.646 151.36 272.666 162.14 272.666 173.8C272.666 182.38 268.486 190.96 261.886 198.66C248.026 214.94 222.726 227.04 200.726 227.04C178.726 227.26 166.406 215.38 166.406 200.64C166.406 186.56 180.046 174.02 194.786 167.2C194.786 167.2 194.786 167.2 195.006 167.2C199.626 164.78 205.566 163.02 210.186 161.7C204.246 159.5 200.946 155.98 200.946 150.48C200.946 144.1 207.106 137.94 216.786 133.98C215.686 133.98 214.366 133.98 212.826 133.76C210.626 133.76 208.206 133.32 205.786 132.88C205.566 132.88 205.346 132.88 205.126 132.88C204.686 132.66 204.026 132.66 203.586 132.44C202.926 132.44 202.486 132.22 202.046 132C201.826 132 201.826 132 201.826 132C201.166 131.78 200.286 131.56 199.406 131.34C185.986 126.5 177.406 115.28 177.406 98.56C177.406 82.72 188.186 69.52 203.806 63.8C204.026 63.8 204.466 63.58 205.346 63.36C208.206 62.48 215.906 60.94 226.686 62.7C227.346 62.7 227.786 62.7 228.446 62.92C231.086 63.36 233.506 64.02 235.926 64.68C236.146 64.68 236.366 64.9 236.586 64.9C237.906 65.34 239.006 65.78 240.106 66.44C242.526 67.54 244.726 68.86 246.926 70.18C254.846 64.68 263.206 61.6 270.906 61.6C271.566 61.6 272.226 61.6 273.106 61.6V76.56ZM227.346 164.56H227.126C221.626 164.34 216.786 163.68 212.826 162.58C210.186 163.02 207.766 163.9 205.566 164.56C205.346 164.56 204.906 164.78 204.686 165C200.286 166.32 196.986 167.86 195.446 168.52C183.346 174.46 175.426 183.04 175.426 192.5C175.426 207.24 189.726 215.6 213.926 215.6C232.626 215.6 251.326 208.34 260.786 197.56C264.306 193.16 266.506 188.1 266.506 182.82C266.506 169.4 256.166 164.56 232.626 164.56H233.286C231.746 164.56 229.326 164.56 228.006 164.56C227.786 164.56 227.566 164.56 227.346 164.56ZM245.166 98.12C245.166 90.64 243.406 83.16 240.326 77.22C240.106 76.78 239.886 76.34 239.666 75.9C239.226 75.02 238.566 74.14 238.126 73.26C236.806 71.5 235.486 69.96 233.946 68.64C230.206 65.12 225.366 62.92 219.646 62.92C201.826 62.92 193.026 74.36 193.026 96.36C193.026 116.6 201.606 132 218.766 132C220.966 132 222.946 131.78 224.706 131.34C224.926 131.34 224.926 131.34 224.926 131.34C237.906 128.7 245.166 117.26 245.166 98.12ZM297.619 40.92C291.459 40.92 286.839 36.08 286.839 29.92C286.839 23.98 291.459 18.92 297.619 18.92C303.559 18.92 308.619 23.98 308.619 29.92C308.619 36.08 303.559 40.92 297.619 40.92ZM305.539 165.22H289.699V60.72H305.539V165.22ZM384.45 150.92L385.55 152.02C378.95 159.72 370.59 165.22 361.35 165.22C347.49 165.22 341.33 156.42 341.33 136.4V61.82H318.45V60.5C323.51 60.5 328.57 59.62 332.97 58.3C352.33 51.92 356.29 34.54 356.29 34.54H356.95V60.5H383.35V61.82H356.95V135.74C356.95 150.7 361.79 158.62 370.59 158.62C375.43 158.62 380.27 155.98 384.45 150.92ZM489.218 155.98L490.538 157.08C485.258 161.92 477.998 166.76 472.938 166.76C465.018 166.76 461.058 161.26 461.058 152.02C461.058 146.96 461.498 140.58 461.938 136.18C457.538 145.2 438.398 166.98 421.018 166.98C404.298 166.98 394.178 156.2 394.178 143.66C394.178 129.8 407.158 116.38 444.338 101.64C444.778 101.42 445.438 101.2 446.098 100.98L448.958 99.88C449.398 99.66 449.618 99.66 449.838 99.44C457.098 96.36 462.158 89.32 462.378 81.18C462.378 80.96 462.378 80.74 462.378 80.52V80.08C462.378 79.64 462.378 79.2 462.378 78.76C462.378 78.76 462.378 78.76 462.378 78.54C462.378 78.1 462.158 77.66 462.158 77.44C462.158 77.22 462.158 77.22 462.158 77C461.938 76.56 461.938 76.12 461.938 75.68C461.718 75.46 461.718 75.02 461.498 74.58C460.618 71.94 459.298 69.52 457.538 67.32C457.318 67.1 457.318 66.88 457.098 66.88C456.658 66.22 456.438 66 456.218 65.78H455.998C454.458 63.8 452.478 62.7 450.278 61.82C447.638 60.72 444.558 60.28 441.038 60.28C439.718 60.28 438.178 60.5 436.858 60.72C435.978 60.72 435.098 60.94 434.438 61.16C431.578 61.82 429.158 63.14 427.178 64.68C420.138 70.18 417.498 78.76 414.198 83.38L403.858 72.6C410.018 68.64 421.458 62.7 433.118 59.84C433.778 59.62 444.338 56.98 455.338 59.4C467.878 61.82 477.338 69.08 478.218 77.66C478.218 77.88 478.218 77.88 478.218 77.88C479.758 89.76 463.478 95.7 463.478 95.7L446.538 102.96C415.958 115.94 408.698 122.1 408.698 137.5C408.698 148.72 418.598 157.74 431.358 157.74C445.658 157.74 460.178 138.6 462.158 131.78C462.158 131.78 464.358 125.62 471.398 125.18C478.438 124.74 477.998 132.22 477.998 132.22C477.778 136.4 477.778 139.7 477.778 141.9C477.778 153.78 479.318 159.72 483.498 159.72C485.258 159.72 487.458 157.96 489.218 155.98ZM520.137 58.74C520.797 62.04 521.457 70.18 521.457 70.18V71.5C521.457 71.5 521.457 71.72 521.457 72.16C521.457 81.18 521.237 165.44 521.237 165.44H505.617C505.617 165.44 505.837 91.74 505.837 70.18V58.74C505.837 26.62 497.477 12.1 483.177 12.1C474.817 12.1 467.117 14.08 461.177 15.18V0.219997C461.837 0.219997 462.497 0.219997 463.157 0.219997C485.817 0.219997 513.757 26.84 520.137 58.74Z" fill="#121212"/>
</svg>
