<svg width="709" height="167" viewBox="0 0 709 167" fill="none" xmlns="http://www.w3.org/2000/svg">
<path d="M56.8 86.02C78.36 95.26 100.36 104.5 100.36 126.94C100.36 150.92 79.9 166.98 54.82 166.98C32.38 166.98 21.16 164.78 6.42 160.82C4.44 160.38 4.44 159.94 4.44 158.62C4.44 153.12 4.22 139.92 4.22 127.6C8.62 140.36 15.22 148.72 22.04 154.22C23.8 155.76 25.78 157.08 27.54 158.18C28.2 158.62 28.86 158.84 29.52 159.28C29.96 159.5 30.4 159.72 30.84 159.94C31.28 160.16 31.72 160.38 32.16 160.6C34.58 161.7 36.78 162.36 38.98 163.02C43.6 164.34 48.88 164.78 54.82 164.78C77.92 164.78 87.82 153.34 87.82 136.84C87.82 116.38 66.92 108.02 45.8 99.22C23.58 89.98 0.92 80.3 0.92 58.08C0.92 33.44 23.14 18.48 49.54 18.48C70.22 18.48 82.98 21.34 94.86 23.98C95.52 24.2 95.96 24.2 96.18 24.42V52.58C93.32 44.22 88.92 38.06 84.08 33.66C72.2 22.88 57.24 21.12 51.74 20.68C51.3 20.68 50.86 20.68 50.64 20.68C49.98 20.68 49.54 20.68 49.54 20.68C24.02 20.68 13.9 32.56 13.9 48.4C13.9 68.2 35.24 77 56.8 86.02ZM169.976 58.74C199.456 58.74 221.236 79.42 221.236 111.32C221.236 128.92 211.336 147.4 195.716 157.96C187.356 163.68 177.456 166.98 166.676 166.98C155.236 166.98 144.676 163.9 136.316 157.96C123.336 149.16 115.196 133.98 115.196 114.84C115.196 84.92 138.076 58.74 169.976 58.74ZM189.556 157.96C199.236 149.82 204.296 134.86 204.296 114.62C204.296 88.66 190.436 60.72 167.556 60.72C143.136 60.72 132.356 80.96 132.356 111.32C132.356 129.36 139.176 148.28 151.496 157.96C156.776 162.14 162.936 164.78 170.196 164.78C177.896 164.78 184.496 162.36 189.556 157.96ZM254.434 58.74C255.094 62.04 255.754 70.18 255.754 70.18V71.5C255.754 71.5 255.754 71.72 255.754 72.16C255.754 81.18 255.534 165.44 255.534 165.44H239.914C239.914 165.44 240.134 91.74 240.134 70.18V58.74C240.134 26.62 231.774 12.1 217.474 12.1C209.114 12.1 201.414 14.08 195.474 15.18V0.219997C196.134 0.219997 196.794 0.219997 197.454 0.219997C220.114 0.219997 248.054 26.84 254.434 58.74ZM350.51 60.5H366.35V165.22H350.51V144.54C339.95 158.62 328.07 166.98 312.23 166.98C293.53 166.98 278.35 157.52 278.35 124.74V60.5H293.75V126.94C293.97 152.68 306.29 160.82 319.05 160.82C332.03 160.82 340.61 155.1 350.51 141.9V60.5ZM445.31 150.92L446.41 152.02C439.81 159.72 431.45 165.22 422.21 165.22C408.35 165.22 402.19 156.42 402.19 136.4V61.82H379.31V60.5C384.37 60.5 389.43 59.62 393.83 58.3C413.19 51.92 417.15 34.54 417.15 34.54H417.81V60.5H444.21V61.82H417.81V135.74C417.81 150.7 422.65 158.62 431.45 158.62C436.29 158.62 441.13 155.98 445.31 150.92ZM469.338 40.92C463.178 40.92 458.558 36.08 458.558 29.92C458.558 23.98 463.178 18.92 469.338 18.92C475.278 18.92 480.338 23.98 480.338 29.92C480.338 36.08 475.278 40.92 469.338 40.92ZM477.258 165.22H461.418V60.72H477.258V165.22ZM550.035 58.74C579.515 58.74 601.295 79.42 601.295 111.32C601.295 128.92 591.395 147.4 575.775 157.96C567.415 163.68 557.515 166.98 546.735 166.98C535.295 166.98 524.735 163.9 516.375 157.96C503.395 149.16 495.255 133.98 495.255 114.84C495.255 84.92 518.135 58.74 550.035 58.74ZM569.615 157.96C579.295 149.82 584.355 134.86 584.355 114.62C584.355 88.66 570.495 60.72 547.615 60.72C523.195 60.72 512.415 80.96 512.415 111.32C512.415 129.36 519.235 148.28 531.555 157.96C536.835 162.14 542.995 164.78 550.255 164.78C557.955 164.78 564.555 162.36 569.615 157.96ZM674.093 58.74C692.793 58.74 708.193 68.2 708.193 100.98V165.22H692.573V99C692.353 73.04 680.033 64.9 667.273 64.9C654.293 64.9 645.713 70.62 635.812 83.82V165.22H620.193V60.5H635.812V81.18C646.373 67.1 658.253 58.74 674.093 58.74Z" fill="#121212"/>
</svg>
