<svg width="20" height="17" viewBox="0 0 20 17" fill="none" xmlns="http://www.w3.org/2000/svg">
<mask id="path-1-outside-1_5393_4494" maskUnits="userSpaceOnUse" x="0" y="0" width="20" height="17" fill="black">
<rect fill="white" width="20" height="17"/>
<path d="M15.3438 5.75C15.3438 5.90625 15.3438 6.03125 15.3438 6.1875C15.3438 10.5312 12.0625 15.5 6.03125 15.5C4.15625 15.5 2.4375 14.9688 1 14.0312C1.25 14.0625 1.5 14.0938 1.78125 14.0938C3.3125 14.0938 4.71875 13.5625 5.84375 12.6875C4.40625 12.6562 3.1875 11.7188 2.78125 10.4062C3 10.4375 3.1875 10.4688 3.40625 10.4688C3.6875 10.4688 4 10.4062 4.25 10.3438C2.75 10.0312 1.625 8.71875 1.625 7.125V7.09375C2.0625 7.34375 2.59375 7.46875 3.125 7.5C2.21875 6.90625 1.65625 5.90625 1.65625 4.78125C1.65625 4.15625 1.8125 3.59375 2.09375 3.125C3.71875 5.09375 6.15625 6.40625 8.875 6.5625C8.8125 6.3125 8.78125 6.0625 8.78125 5.8125C8.78125 4 10.25 2.53125 12.0625 2.53125C13 2.53125 13.8438 2.90625 14.4688 3.5625C15.1875 3.40625 15.9062 3.125 16.5312 2.75C16.2812 3.53125 15.7812 4.15625 15.0938 4.5625C15.75 4.5 16.4062 4.3125 16.9688 4.0625C16.5312 4.71875 15.9688 5.28125 15.3438 5.75Z"/>
</mask>
<path d="M15.3438 5.75C15.3438 5.90625 15.3438 6.03125 15.3438 6.1875C15.3438 10.5312 12.0625 15.5 6.03125 15.5C4.15625 15.5 2.4375 14.9688 1 14.0312C1.25 14.0625 1.5 14.0938 1.78125 14.0938C3.3125 14.0938 4.71875 13.5625 5.84375 12.6875C4.40625 12.6562 3.1875 11.7188 2.78125 10.4062C3 10.4375 3.1875 10.4688 3.40625 10.4688C3.6875 10.4688 4 10.4062 4.25 10.3438C2.75 10.0312 1.625 8.71875 1.625 7.125V7.09375C2.0625 7.34375 2.59375 7.46875 3.125 7.5C2.21875 6.90625 1.65625 5.90625 1.65625 4.78125C1.65625 4.15625 1.8125 3.59375 2.09375 3.125C3.71875 5.09375 6.15625 6.40625 8.875 6.5625C8.8125 6.3125 8.78125 6.0625 8.78125 5.8125C8.78125 4 10.25 2.53125 12.0625 2.53125C13 2.53125 13.8438 2.90625 14.4688 3.5625C15.1875 3.40625 15.9062 3.125 16.5312 2.75C16.2812 3.53125 15.7812 4.15625 15.0938 4.5625C15.75 4.5 16.4062 4.3125 16.9688 4.0625C16.5312 4.71875 15.9688 5.28125 15.3438 5.75Z" fill="#121212"/>
<path d="M15.3438 5.75L14.7438 4.95L14.3438 5.25V5.75H15.3438ZM1 14.0312L1.12403 13.039L0.453732 14.8689L1 14.0312ZM5.84375 12.6875L6.45769 13.4769L8.67933 11.7489L5.86548 11.6877L5.84375 12.6875ZM2.78125 10.4062L2.92267 9.4163L1.35888 9.1929L1.82596 10.7019L2.78125 10.4062ZM4.25 10.3438L4.49254 11.3139L4.45395 9.36477L4.25 10.3438ZM1.625 7.09375L2.12114 6.22551L0.625 5.37057L0.625 7.09375H1.625ZM3.125 7.5L3.06628 8.49827L6.80949 8.71846L3.67303 6.66354L3.125 7.5ZM2.09375 3.125L2.86497 2.48843L1.96425 1.39718L1.23626 2.6105L2.09375 3.125ZM8.875 6.5625L8.81762 7.56085L10.1749 7.63886L9.84514 6.31996L8.875 6.5625ZM14.4688 3.5625L13.7446 4.25216L14.1321 4.65904L14.6812 4.53968L14.4688 3.5625ZM16.5312 2.75L17.4837 3.05478L18.2926 0.527027L16.0168 1.89251L16.5312 2.75ZM15.0938 4.5625L14.585 3.70157L15.1886 5.558L15.0938 4.5625ZM16.9688 4.0625L17.8008 4.6172L19.7134 1.74835L16.5626 3.14869L16.9688 4.0625ZM15.3438 5.75H14.3438C14.3438 5.75031 14.3438 5.75061 14.3438 5.75092C14.3438 5.75122 14.3438 5.75152 14.3438 5.75183C14.3438 5.75213 14.3438 5.75244 14.3438 5.75274C14.3438 5.75305 14.3438 5.75335 14.3438 5.75366C14.3438 5.75396 14.3438 5.75426 14.3438 5.75457C14.3438 5.75487 14.3438 5.75518 14.3438 5.75548C14.3438 5.75578 14.3438 5.75609 14.3438 5.75639C14.3438 5.75669 14.3438 5.757 14.3438 5.7573C14.3438 5.7576 14.3438 5.75791 14.3438 5.75821C14.3438 5.75851 14.3438 5.75882 14.3438 5.75912C14.3438 5.75942 14.3438 5.75973 14.3438 5.76003C14.3438 5.76033 14.3438 5.76063 14.3438 5.76094C14.3438 5.76124 14.3438 5.76154 14.3438 5.76184C14.3438 5.76214 14.3438 5.76245 14.3438 5.76275C14.3438 5.76305 14.3438 5.76335 14.3438 5.76365C14.3438 5.76396 14.3438 5.76426 14.3438 5.76456C14.3438 5.76486 14.3438 5.76516 14.3438 5.76546C14.3438 5.76576 14.3438 5.76607 14.3438 5.76637C14.3438 5.76667 14.3438 5.76697 14.3438 5.76727C14.3438 5.76757 14.3438 5.76787 14.3438 5.76817C14.3438 5.76847 14.3438 5.76877 14.3438 5.76907C14.3438 5.76937 14.3438 5.76967 14.3438 5.76997C14.3438 5.77027 14.3438 5.77057 14.3438 5.77087C14.3438 5.77117 14.3438 5.77147 14.3438 5.77177C14.3438 5.77207 14.3438 5.77237 14.3438 5.77267C14.3438 5.77297 14.3438 5.77327 14.3438 5.77357C14.3438 5.77387 14.3438 5.77417 14.3438 5.77447C14.3438 5.77477 14.3438 5.77507 14.3438 5.77536C14.3438 5.77566 14.3438 5.77596 14.3438 5.77626C14.3438 5.77656 14.3438 5.77686 14.3438 5.77716C14.3438 5.77745 14.3438 5.77775 14.3438 5.77805C14.3438 5.77835 14.3438 5.77865 14.3438 5.77895C14.3438 5.77924 14.3438 5.77954 14.3438 5.77984C14.3438 5.78014 14.3438 5.78044 14.3438 5.78073C14.3438 5.78103 14.3438 5.78133 14.3438 5.78163C14.3438 5.78192 14.3438 5.78222 14.3438 5.78252C14.3438 5.78281 14.3438 5.78311 14.3438 5.78341C14.3438 5.78371 14.3438 5.784 14.3438 5.7843C14.3438 5.7846 14.3438 5.78489 14.3438 5.78519C14.3438 5.78549 14.3438 5.78578 14.3438 5.78608C14.3438 5.78638 14.3438 5.78667 14.3438 5.78697C14.3438 5.78726 14.3438 5.78756 14.3438 5.78786C14.3438 5.78815 14.3438 5.78845 14.3438 5.78874C14.3438 5.78904 14.3438 5.78933 14.3438 5.78963C14.3438 5.78993 14.3438 5.79022 14.3438 5.79052C14.3438 5.79081 14.3438 5.79111 14.3438 5.7914C14.3438 5.7917 14.3438 5.79199 14.3438 5.79229C14.3438 5.79258 14.3438 5.79288 14.3438 5.79317C14.3438 5.79347 14.3438 5.79376 14.3438 5.79406C14.3438 5.79435 14.3438 5.79465 14.3438 5.79494C14.3438 5.79523 14.3438 5.79553 14.3438 5.79582C14.3438 5.79612 14.3438 5.79641 14.3438 5.79671C14.3438 5.797 14.3438 5.79729 14.3438 5.79759C14.3438 5.79788 14.3438 5.79818 14.3438 5.79847C14.3438 5.79876 14.3438 5.79906 14.3438 5.79935C14.3438 5.79964 14.3438 5.79994 14.3438 5.80023C14.3438 5.80052 14.3438 5.80082 14.3438 5.80111C14.3438 5.8014 14.3438 5.8017 14.3438 5.80199C14.3438 5.80228 14.3438 5.80257 14.3438 5.80287C14.3438 5.80316 14.3438 5.80345 14.3438 5.80374C14.3438 5.80404 14.3438 5.80433 14.3438 5.80462C14.3438 5.80491 14.3438 5.80521 14.3438 5.8055C14.3438 5.80579 14.3438 5.80608 14.3438 5.80638C14.3438 5.80667 14.3438 5.80696 14.3438 5.80725C14.3438 5.80754 14.3438 5.80783 14.3438 5.80813C14.3438 5.80842 14.3438 5.80871 14.3438 5.809C14.3438 5.80929 14.3438 5.80958 14.3438 5.80987C14.3438 5.81017 14.3438 5.81046 14.3438 5.81075C14.3438 5.81104 14.3438 5.81133 14.3438 5.81162C14.3438 5.81191 14.3438 5.8122 14.3438 5.81249C14.3438 5.81279 14.3438 5.81308 14.3438 5.81337C14.3438 5.81366 14.3438 5.81395 14.3438 5.81424C14.3438 5.81453 14.3438 5.81482 14.3438 5.81511C14.3438 5.8154 14.3438 5.81569 14.3438 5.81598C14.3438 5.81627 14.3438 5.81656 14.3438 5.81685C14.3438 5.81714 14.3438 5.81743 14.3438 5.81772C14.3438 5.81801 14.3438 5.8183 14.3438 5.81859C14.3438 5.81888 14.3438 5.81917 14.3438 5.81946C14.3438 5.81975 14.3438 5.82004 14.3438 5.82032C14.3438 5.82061 14.3438 5.8209 14.3438 5.82119C14.3438 5.82148 14.3438 5.82177 14.3438 5.82206C14.3438 5.82235 14.3438 5.82264 14.3438 5.82293C14.3438 5.82321 14.3438 5.8235 14.3438 5.82379C14.3438 5.82408 14.3438 5.82437 14.3438 5.82466C14.3438 5.82495 14.3438 5.82523 14.3438 5.82552C14.3438 5.82581 14.3438 5.8261 14.3438 5.82639C14.3438 5.82667 14.3438 5.82696 14.3438 5.82725C14.3438 5.82754 14.3438 5.82783 14.3438 5.82811C14.3438 5.8284 14.3438 5.82869 14.3438 5.82898C14.3438 5.82927 14.3438 5.82955 14.3438 5.82984C14.3438 5.83013 14.3438 5.83042 14.3438 5.8307C14.3438 5.83099 14.3438 5.83128 14.3438 5.83156C14.3438 5.83185 14.3438 5.83214 14.3438 5.83243C14.3438 5.83271 14.3438 5.833 14.3438 5.83329C14.3438 5.83357 14.3438 5.83386 14.3438 5.83415C14.3438 5.83443 14.3438 5.83472 14.3438 5.83501C14.3438 5.83529 14.3438 5.83558 14.3438 5.83587C14.3438 5.83615 14.3438 5.83644 14.3438 5.83673C14.3438 5.83701 14.3438 5.8373 14.3438 5.83758C14.3438 5.83787 14.3438 5.83816 14.3438 5.83844C14.3438 5.83873 14.3438 5.83901 14.3438 5.8393C14.3438 5.83959 14.3438 5.83987 14.3438 5.84016C14.3438 5.84044 14.3438 5.84073 14.3438 5.84101C14.3438 5.8413 14.3438 5.84159 14.3438 5.84187C14.3438 5.84216 14.3438 5.84244 14.3438 5.84273C14.3438 5.84301 14.3438 5.8433 14.3438 5.84358C14.3438 5.84387 14.3438 5.84415 14.3438 5.84444C14.3438 5.84472 14.3438 5.84501 14.3438 5.84529C14.3438 5.84558 14.3438 5.84586 14.3438 5.84615C14.3438 5.84643 14.3438 5.84672 14.3438 5.847C14.3438 5.84729 14.3438 5.84757 14.3438 5.84785C14.3438 5.84814 14.3438 5.84842 14.3438 5.84871C14.3438 5.84899 14.3438 5.84928 14.3438 5.84956C14.3438 5.84984 14.3438 5.85013 14.3438 5.85041C14.3438 5.8507 14.3438 5.85098 14.3438 5.85126C14.3438 5.85155 14.3438 5.85183 14.3438 5.85212C14.3438 5.8524 14.3438 5.85268 14.3438 5.85297C14.3438 5.85325 14.3438 5.85353 14.3438 5.85382C14.3438 5.8541 14.3438 5.85438 14.3438 5.85467C14.3438 5.85495 14.3438 5.85523 14.3438 5.85552C14.3438 5.8558 14.3438 5.85608 14.3438 5.85637C14.3438 5.85665 14.3438 5.85693 14.3438 5.85722C14.3438 5.8575 14.3438 5.85778 14.3438 5.85807C14.3438 5.85835 14.3438 5.85863 14.3438 5.85891C14.3438 5.8592 14.3438 5.85948 14.3438 5.85976C14.3438 5.86005 14.3438 5.86033 14.3438 5.86061C14.3438 5.86089 14.3438 5.86118 14.3438 5.86146C14.3438 5.86174 14.3438 5.86202 14.3438 5.8623C14.3438 5.86259 14.3438 5.86287 14.3438 5.86315C14.3438 5.86343 14.3438 5.86372 14.3438 5.864C14.3438 5.86428 14.3438 5.86456 14.3438 5.86484C14.3438 5.86513 14.3438 5.86541 14.3438 5.86569C14.3438 5.86597 14.3438 5.86625 14.3438 5.86653C14.3438 5.86682 14.3438 5.8671 14.3438 5.86738C14.3438 5.86766 14.3438 5.86794 14.3438 5.86822C14.3438 5.86851 14.3438 5.86879 14.3438 5.86907C14.3438 5.86935 14.3438 5.86963 14.3438 5.86991C14.3438 5.87019 14.3438 5.87047 14.3438 5.87076C14.3438 5.87104 14.3438 5.87132 14.3438 5.8716C14.3438 5.87188 14.3438 5.87216 14.3438 5.87244C14.3438 5.87272 14.3438 5.873 14.3438 5.87328C14.3438 5.87357 14.3438 5.87385 14.3438 5.87413C14.3438 5.87441 14.3438 5.87469 14.3438 5.87497C14.3438 5.87525 14.3438 5.87553 14.3438 5.87581C14.3438 5.87609 14.3438 5.87637 14.3438 5.87665C14.3438 5.87693 14.3438 5.87721 14.3438 5.87749C14.3438 5.87777 14.3438 5.87805 14.3438 5.87833C14.3438 5.87861 14.3438 5.87889 14.3438 5.87917C14.3438 5.87945 14.3438 5.87973 14.3438 5.88001C14.3438 5.88029 14.3438 5.88057 14.3438 5.88085C14.3438 5.88113 14.3438 5.88141 14.3438 5.88169C14.3438 5.88197 14.3438 5.88225 14.3438 5.88253C14.3438 5.88281 14.3438 5.88309 14.3438 5.88337C14.3438 5.88365 14.3438 5.88393 14.3438 5.88421C14.3438 5.88449 14.3438 5.88477 14.3438 5.88505C14.3438 5.88533 14.3438 5.88561 14.3438 5.88589C14.3438 5.88617 14.3438 5.88645 14.3438 5.88672C14.3438 5.887 14.3438 5.88728 14.3438 5.88756C14.3438 5.88784 14.3438 5.88812 14.3438 5.8884C14.3438 5.88868 14.3438 5.88896 14.3438 5.88924C14.3438 5.88952 14.3438 5.88979 14.3438 5.89007C14.3438 5.89035 14.3438 5.89063 14.3438 5.89091C14.3438 5.89119 14.3438 5.89147 14.3438 5.89175C14.3438 5.89202 14.3438 5.8923 14.3438 5.89258C14.3438 5.89286 14.3438 5.89314 14.3438 5.89342C14.3438 5.8937 14.3438 5.89397 14.3438 5.89425C14.3438 5.89453 14.3438 5.89481 14.3438 5.89509C14.3438 5.89537 14.3438 5.89564 14.3438 5.89592C14.3438 5.8962 14.3438 5.89648 14.3438 5.89676C14.3438 5.89704 14.3438 5.89731 14.3438 5.89759C14.3438 5.89787 14.3438 5.89815 14.3438 5.89843C14.3438 5.8987 14.3438 5.89898 14.3438 5.89926C14.3438 5.89954 14.3438 5.89982 14.3438 5.90009C14.3438 5.90037 14.3438 5.90065 14.3438 5.90093C14.3438 5.90121 14.3438 5.90148 14.3438 5.90176C14.3438 5.90204 14.3438 5.90232 14.3438 5.90259C14.3438 5.90287 14.3438 5.90315 14.3438 5.90343C14.3438 5.9037 14.3438 5.90398 14.3438 5.90426C14.3438 5.90454 14.3438 5.90481 14.3438 5.90509C14.3438 5.90537 14.3438 5.90565 14.3438 5.90592C14.3438 5.9062 14.3438 5.90648 14.3438 5.90676C14.3438 5.90703 14.3438 5.90731 14.3438 5.90759C14.3438 5.90786 14.3438 5.90814 14.3438 5.90842C14.3438 5.9087 14.3438 5.90897 14.3438 5.90925C14.3438 5.90953 14.3438 5.9098 14.3438 5.91008C14.3438 5.91036 14.3438 5.91064 14.3438 5.91091C14.3438 5.91119 14.3438 5.91147 14.3438 5.91174C14.3438 5.91202 14.3438 5.9123 14.3438 5.91257C14.3438 5.91285 14.3438 5.91313 14.3438 5.9134C14.3438 5.91368 14.3438 5.91396 14.3438 5.91423C14.3438 5.91451 14.3438 5.91479 14.3438 5.91506C14.3438 5.91534 14.3438 5.91562 14.3438 5.91589C14.3438 5.91617 14.3438 5.91645 14.3438 5.91672C14.3438 5.917 14.3438 5.91728 14.3438 5.91755C14.3438 5.91783 14.3438 5.91811 14.3438 5.91838C14.3438 5.91866 14.3438 5.91893 14.3438 5.91921C14.3438 5.91949 14.3438 5.91976 14.3438 5.92004C14.3438 5.92032 14.3438 5.92059 14.3438 5.92087C14.3438 5.92114 14.3438 5.92142 14.3438 5.9217C14.3438 5.92197 14.3438 5.92225 14.3438 5.92253C14.3438 5.9228 14.3438 5.92308 14.3438 5.92335C14.3438 5.92363 14.3438 5.92391 14.3438 5.92418C14.3438 5.92446 14.3438 5.92473 14.3438 5.92501C14.3438 5.92529 14.3438 5.92556 14.3438 5.92584C14.3438 5.92611 14.3438 5.92639 14.3438 5.92667C14.3438 5.92694 14.3438 5.92722 14.3438 5.92749C14.3438 5.92777 14.3438 5.92804 14.3438 5.92832C14.3438 5.9286 14.3438 5.92887 14.3438 5.92915C14.3438 5.92942 14.3438 5.9297 14.3438 5.92997C14.3438 5.93025 14.3438 5.93053 14.3438 5.9308C14.3438 5.93108 14.3438 5.93135 14.3438 5.93163C14.3438 5.9319 14.3438 5.93218 14.3438 5.93246C14.3438 5.93273 14.3438 5.93301 14.3438 5.93328C14.3438 5.93356 14.3438 5.93383 14.3438 5.93411C14.3438 5.93438 14.3438 5.93466 14.3438 5.93493C14.3438 5.93521 14.3438 5.93549 14.3438 5.93576C14.3438 5.93604 14.3438 5.93631 14.3438 5.93659C14.3438 5.93686 14.3438 5.93714 14.3438 5.93741C14.3438 5.93769 14.3438 5.93796 14.3438 5.93824C14.3438 5.93851 14.3438 5.93879 14.3438 5.93907C14.3438 5.93934 14.3438 5.93962 14.3438 5.93989C14.3438 5.94017 14.3438 5.94044 14.3438 5.94072C14.3438 5.94099 14.3438 5.94127 14.3438 5.94154C14.3438 5.94182 14.3438 5.94209 14.3438 5.94237C14.3438 5.94264 14.3438 5.94292 14.3438 5.94319C14.3438 5.94347 14.3438 5.94374 14.3438 5.94402C14.3438 5.94429 14.3438 5.94457 14.3438 5.94484C14.3438 5.94512 14.3438 5.94539 14.3438 5.94567C14.3438 5.94594 14.3438 5.94622 14.3438 5.94649C14.3438 5.94677 14.3438 5.94704 14.3438 5.94732C14.3438 5.94759 14.3438 5.94787 14.3438 5.94814C14.3438 5.94842 14.3438 5.94869 14.3438 5.94897C14.3438 5.94924 14.3438 5.94952 14.3438 5.94979C14.3438 5.95007 14.3438 5.95034 14.3438 5.95062C14.3438 5.95089 14.3438 5.95117 14.3438 5.95144C14.3438 5.95172 14.3438 5.95199 14.3438 5.95227C14.3438 5.95254 14.3438 5.95282 14.3438 5.95309C14.3438 5.95337 14.3438 5.95364 14.3438 5.95392C14.3438 5.95419 14.3438 5.95447 14.3438 5.95474C14.3438 5.95501 14.3438 5.95529 14.3438 5.95556C14.3438 5.95584 14.3438 5.95611 14.3438 5.95639C14.3438 5.95666 14.3438 5.95694 14.3438 5.95721C14.3438 5.95749 14.3438 5.95776 14.3438 5.95804C14.3438 5.95831 14.3438 5.95859 14.3438 5.95886C14.3438 5.95914 14.3438 5.95941 14.3438 5.95969C14.3438 5.95996 14.3438 5.96024 14.3438 5.96051C14.3438 5.96078 14.3438 5.96106 14.3438 5.96133C14.3438 5.96161 14.3438 5.96188 14.3438 5.96216C14.3438 5.96243 14.3438 5.96271 14.3438 5.96298C14.3438 5.96326 14.3438 5.96353 14.3438 5.96381C14.3438 5.96408 14.3438 5.96436 14.3438 5.96463C14.3438 5.9649 14.3438 5.96518 14.3438 5.96545C14.3438 5.96573 14.3438 5.966 14.3438 5.96628C14.3438 5.96655 14.3438 5.96683 14.3438 5.9671C14.3438 5.96738 14.3438 5.96765 14.3438 5.96793C14.3438 5.9682 14.3438 5.96848 14.3438 5.96875C14.3438 5.96902 14.3438 5.9693 14.3438 5.96957C14.3438 5.96985 14.3438 5.97012 14.3438 5.9704C14.3438 5.97067 14.3438 5.97095 14.3438 5.97122C14.3438 5.9715 14.3438 5.97177 14.3438 5.97205C14.3438 5.97232 14.3438 5.9726 14.3438 5.97287C14.3438 5.97314 14.3438 5.97342 14.3438 5.97369C14.3438 5.97397 14.3438 5.97424 14.3438 5.97452C14.3438 5.97479 14.3438 5.97507 14.3438 5.97534C14.3438 5.97562 14.3438 5.97589 14.3438 5.97617C14.3438 5.97644 14.3438 5.97672 14.3438 5.97699C14.3438 5.97726 14.3438 5.97754 14.3438 5.97781C14.3438 5.97809 14.3438 5.97836 14.3438 5.97864C14.3438 5.97891 14.3438 5.97919 14.3438 5.97946C14.3438 5.97974 14.3438 5.98001 14.3438 5.98029C14.3438 5.98056 14.3438 5.98084 14.3438 5.98111C14.3438 5.98139 14.3438 5.98166 14.3438 5.98194C14.3438 5.98221 14.3438 5.98249 14.3438 5.98276C14.3438 5.98303 14.3438 5.98331 14.3438 5.98358C14.3438 5.98386 14.3438 5.98413 14.3438 5.98441C14.3438 5.98468 14.3438 5.98496 14.3438 5.98523C14.3438 5.98551 14.3438 5.98578 14.3438 5.98606C14.3438 5.98633 14.3438 5.98661 14.3438 5.98688C14.3438 5.98716 14.3438 5.98743 14.3438 5.98771C14.3438 5.98798 14.3438 5.98826 14.3438 5.98853C14.3438 5.98881 14.3438 5.98908 14.3438 5.98936C14.3438 5.98963 14.3438 5.98991 14.3438 5.99018C14.3438 5.99046 14.3438 5.99073 14.3438 5.99101C14.3438 5.99128 14.3438 5.99156 14.3438 5.99183C14.3438 5.99211 14.3438 5.99238 14.3438 5.99266C14.3438 5.99293 14.3438 5.99321 14.3438 5.99348C14.3438 5.99376 14.3438 5.99403 14.3438 5.99431C14.3438 5.99458 14.3438 5.99486 14.3438 5.99513C14.3438 5.99541 14.3438 5.99568 14.3438 5.99596C14.3438 5.99623 14.3438 5.99651 14.3438 5.99678C14.3438 5.99706 14.3438 5.99733 14.3438 5.99761C14.3438 5.99788 14.3438 5.99816 14.3438 5.99843C14.3438 5.99871 14.3438 5.99899 14.3438 5.99926C14.3438 5.99954 14.3438 5.99981 14.3438 6.00009C14.3438 6.00036 14.3438 6.00064 14.3438 6.00091C14.3438 6.00119 14.3438 6.00146 14.3438 6.00174C14.3438 6.00201 14.3438 6.00229 14.3438 6.00257C14.3438 6.00284 14.3438 6.00312 14.3438 6.00339C14.3438 6.00367 14.3438 6.00394 14.3438 6.00422C14.3438 6.00449 14.3438 6.00477 14.3438 6.00504C14.3438 6.00532 14.3438 6.0056 14.3438 6.00587C14.3438 6.00615 14.3438 6.00642 14.3438 6.0067C14.3438 6.00697 14.3438 6.00725 14.3438 6.00753C14.3438 6.0078 14.3438 6.00808 14.3438 6.00835C14.3438 6.00863 14.3438 6.0089 14.3438 6.00918C14.3438 6.00946 14.3438 6.00973 14.3438 6.01001C14.3438 6.01028 14.3438 6.01056 14.3438 6.01083C14.3438 6.01111 14.3438 6.01139 14.3438 6.01166C14.3438 6.01194 14.3438 6.01221 14.3438 6.01249C14.3438 6.01277 14.3438 6.01304 14.3438 6.01332C14.3438 6.01359 14.3438 6.01387 14.3438 6.01415C14.3438 6.01442 14.3438 6.0147 14.3438 6.01497C14.3438 6.01525 14.3438 6.01553 14.3438 6.0158C14.3438 6.01608 14.3438 6.01636 14.3438 6.01663C14.3438 6.01691 14.3438 6.01718 14.3438 6.01746C14.3438 6.01774 14.3438 6.01801 14.3438 6.01829C14.3438 6.01857 14.3438 6.01884 14.3438 6.01912C14.3438 6.01939 14.3438 6.01967 14.3438 6.01995C14.3438 6.02022 14.3438 6.0205 14.3438 6.02078C14.3438 6.02105 14.3438 6.02133 14.3438 6.02161C14.3438 6.02188 14.3438 6.02216 14.3438 6.02244C14.3438 6.02271 14.3438 6.02299 14.3438 6.02327C14.3438 6.02354 14.3438 6.02382 14.3438 6.0241C14.3438 6.02437 14.3438 6.02465 14.3438 6.02493C14.3438 6.0252 14.3438 6.02548 14.3438 6.02576C14.3438 6.02603 14.3438 6.02631 14.3438 6.02659C14.3438 6.02686 14.3438 6.02714 14.3438 6.02742C14.3438 6.0277 14.3438 6.02797 14.3438 6.02825C14.3438 6.02853 14.3438 6.0288 14.3438 6.02908C14.3438 6.02936 14.3438 6.02964 14.3438 6.02991C14.3438 6.03019 14.3438 6.03047 14.3438 6.03074C14.3438 6.03102 14.3438 6.0313 14.3438 6.03158C14.3438 6.03185 14.3438 6.03213 14.3438 6.03241C14.3438 6.03269 14.3438 6.03296 14.3438 6.03324C14.3438 6.03352 14.3438 6.0338 14.3438 6.03407C14.3438 6.03435 14.3438 6.03463 14.3438 6.03491C14.3438 6.03518 14.3438 6.03546 14.3438 6.03574C14.3438 6.03602 14.3438 6.03629 14.3438 6.03657C14.3438 6.03685 14.3438 6.03713 14.3438 6.03741C14.3438 6.03768 14.3438 6.03796 14.3438 6.03824C14.3438 6.03852 14.3438 6.0388 14.3438 6.03907C14.3438 6.03935 14.3438 6.03963 14.3438 6.03991C14.3438 6.04019 14.3438 6.04046 14.3438 6.04074C14.3438 6.04102 14.3438 6.0413 14.3438 6.04158C14.3438 6.04186 14.3438 6.04213 14.3438 6.04241C14.3438 6.04269 14.3438 6.04297 14.3438 6.04325C14.3438 6.04353 14.3438 6.0438 14.3438 6.04408C14.3438 6.04436 14.3438 6.04464 14.3438 6.04492C14.3438 6.0452 14.3438 6.04548 14.3438 6.04575C14.3438 6.04603 14.3438 6.04631 14.3438 6.04659C14.3438 6.04687 14.3438 6.04715 14.3438 6.04743C14.3438 6.04771 14.3438 6.04798 14.3438 6.04826C14.3438 6.04854 14.3438 6.04882 14.3438 6.0491C14.3438 6.04938 14.3438 6.04966 14.3438 6.04994C14.3438 6.05022 14.3438 6.0505 14.3438 6.05078C14.3438 6.05105 14.3438 6.05133 14.3438 6.05161C14.3438 6.05189 14.3438 6.05217 14.3438 6.05245C14.3438 6.05273 14.3438 6.05301 14.3438 6.05329C14.3438 6.05357 14.3438 6.05385 14.3438 6.05413C14.3438 6.05441 14.3438 6.05469 14.3438 6.05497C14.3438 6.05525 14.3438 6.05553 14.3438 6.05581C14.3438 6.05609 14.3438 6.05637 14.3438 6.05665C14.3438 6.05693 14.3438 6.05721 14.3438 6.05749C14.3438 6.05777 14.3438 6.05805 14.3438 6.05833C14.3438 6.05861 14.3438 6.05889 14.3438 6.05917C14.3438 6.05945 14.3438 6.05973 14.3438 6.06001C14.3438 6.06029 14.3438 6.06057 14.3438 6.06085C14.3438 6.06113 14.3438 6.06141 14.3438 6.06169C14.3438 6.06197 14.3438 6.06225 14.3438 6.06253C14.3438 6.06281 14.3438 6.06309 14.3438 6.06337C14.3438 6.06365 14.3438 6.06393 14.3438 6.06422C14.3438 6.0645 14.3438 6.06478 14.3438 6.06506C14.3438 6.06534 14.3438 6.06562 14.3438 6.0659C14.3438 6.06618 14.3438 6.06646 14.3438 6.06674C14.3438 6.06703 14.3438 6.06731 14.3438 6.06759C14.3438 6.06787 14.3438 6.06815 14.3438 6.06843C14.3438 6.06871 14.3438 6.06899 14.3438 6.06928C14.3438 6.06956 14.3438 6.06984 14.3438 6.07012C14.3438 6.0704 14.3438 6.07068 14.3438 6.07097C14.3438 6.07125 14.3438 6.07153 14.3438 6.07181C14.3438 6.07209 14.3438 6.07237 14.3438 6.07266C14.3438 6.07294 14.3438 6.07322 14.3438 6.0735C14.3438 6.07378 14.3438 6.07407 14.3438 6.07435C14.3438 6.07463 14.3438 6.07491 14.3438 6.0752C14.3438 6.07548 14.3438 6.07576 14.3438 6.07604C14.3438 6.07632 14.3438 6.07661 14.3438 6.07689C14.3438 6.07717 14.3438 6.07745 14.3438 6.07774C14.3438 6.07802 14.3438 6.0783 14.3438 6.07859C14.3438 6.07887 14.3438 6.07915 14.3438 6.07943C14.3438 6.07972 14.3438 6.08 14.3438 6.08028C14.3438 6.08057 14.3438 6.08085 14.3438 6.08113C14.3438 6.08142 14.3438 6.0817 14.3438 6.08198C14.3438 6.08227 14.3438 6.08255 14.3438 6.08283C14.3438 6.08312 14.3438 6.0834 14.3438 6.08368C14.3438 6.08397 14.3438 6.08425 14.3438 6.08453C14.3438 6.08482 14.3438 6.0851 14.3438 6.08538C14.3438 6.08567 14.3438 6.08595 14.3438 6.08624C14.3438 6.08652 14.3438 6.0868 14.3438 6.08709C14.3438 6.08737 14.3438 6.08766 14.3438 6.08794C14.3438 6.08822 14.3438 6.08851 14.3438 6.08879C14.3438 6.08908 14.3438 6.08936 14.3438 6.08965C14.3438 6.08993 14.3438 6.09021 14.3438 6.0905C14.3438 6.09078 14.3438 6.09107 14.3438 6.09135C14.3438 6.09164 14.3438 6.09192 14.3438 6.09221C14.3438 6.09249 14.3438 6.09278 14.3438 6.09306C14.3438 6.09335 14.3438 6.09363 14.3438 6.09392C14.3438 6.0942 14.3438 6.09449 14.3438 6.09477C14.3438 6.09506 14.3438 6.09534 14.3438 6.09563C14.3438 6.09591 14.3438 6.0962 14.3438 6.09649C14.3438 6.09677 14.3438 6.09706 14.3438 6.09734C14.3438 6.09763 14.3438 6.09791 14.3438 6.0982C14.3438 6.09849 14.3438 6.09877 14.3438 6.09906C14.3438 6.09934 14.3438 6.09963 14.3438 6.09992C14.3438 6.1002 14.3438 6.10049 14.3438 6.10077C14.3438 6.10106 14.3438 6.10135 14.3438 6.10163C14.3438 6.10192 14.3438 6.10221 14.3438 6.10249C14.3438 6.10278 14.3438 6.10307 14.3438 6.10335C14.3438 6.10364 14.3438 6.10393 14.3438 6.10421C14.3438 6.1045 14.3438 6.10479 14.3438 6.10507C14.3438 6.10536 14.3438 6.10565 14.3438 6.10594C14.3438 6.10622 14.3438 6.10651 14.3438 6.1068C14.3438 6.10708 14.3438 6.10737 14.3438 6.10766C14.3438 6.10795 14.3438 6.10823 14.3438 6.10852C14.3438 6.10881 14.3438 6.1091 14.3438 6.10939C14.3438 6.10967 14.3438 6.10996 14.3438 6.11025C14.3438 6.11054 14.3438 6.11083 14.3438 6.11111C14.3438 6.1114 14.3438 6.11169 14.3438 6.11198C14.3438 6.11227 14.3438 6.11255 14.3438 6.11284C14.3438 6.11313 14.3438 6.11342 14.3438 6.11371C14.3438 6.114 14.3438 6.11429 14.3438 6.11457C14.3438 6.11486 14.3438 6.11515 14.3438 6.11544C14.3438 6.11573 14.3438 6.11602 14.3438 6.11631C14.3438 6.1166 14.3438 6.11689 14.3438 6.11718C14.3438 6.11746 14.3438 6.11775 14.3438 6.11804C14.3438 6.11833 14.3438 6.11862 14.3438 6.11891C14.3438 6.1192 14.3438 6.11949 14.3438 6.11978C14.3438 6.12007 14.3438 6.12036 14.3438 6.12065C14.3438 6.12094 14.3438 6.12123 14.3438 6.12152C14.3438 6.12181 14.3438 6.1221 14.3438 6.12239C14.3438 6.12268 14.3438 6.12297 14.3438 6.12326C14.3438 6.12355 14.3438 6.12384 14.3438 6.12413C14.3438 6.12442 14.3438 6.12471 14.3438 6.12501C14.3438 6.1253 14.3438 6.12559 14.3438 6.12588C14.3438 6.12617 14.3438 6.12646 14.3438 6.12675C14.3438 6.12704 14.3438 6.12733 14.3438 6.12763C14.3438 6.12792 14.3438 6.12821 14.3438 6.1285C14.3438 6.12879 14.3438 6.12908 14.3438 6.12937C14.3438 6.12967 14.3438 6.12996 14.3438 6.13025C14.3438 6.13054 14.3438 6.13083 14.3438 6.13112C14.3438 6.13142 14.3438 6.13171 14.3438 6.132C14.3438 6.13229 14.3438 6.13259 14.3438 6.13288C14.3438 6.13317 14.3438 6.13346 14.3438 6.13376C14.3438 6.13405 14.3438 6.13434 14.3438 6.13463C14.3438 6.13493 14.3438 6.13522 14.3438 6.13551C14.3438 6.1358 14.3438 6.1361 14.3438 6.13639C14.3438 6.13668 14.3438 6.13698 14.3438 6.13727C14.3438 6.13756 14.3438 6.13786 14.3438 6.13815C14.3438 6.13844 14.3438 6.13874 14.3438 6.13903C14.3438 6.13932 14.3438 6.13962 14.3438 6.13991C14.3438 6.14021 14.3438 6.1405 14.3438 6.14079C14.3438 6.14109 14.3438 6.14138 14.3438 6.14168C14.3438 6.14197 14.3438 6.14227 14.3438 6.14256C14.3438 6.14285 14.3438 6.14315 14.3438 6.14344C14.3438 6.14374 14.3438 6.14403 14.3438 6.14433C14.3438 6.14462 14.3438 6.14492 14.3438 6.14521C14.3438 6.14551 14.3438 6.1458 14.3438 6.1461C14.3438 6.14639 14.3438 6.14669 14.3438 6.14698C14.3438 6.14728 14.3438 6.14757 14.3438 6.14787C14.3438 6.14817 14.3438 6.14846 14.3438 6.14876C14.3438 6.14905 14.3438 6.14935 14.3438 6.14964C14.3438 6.14994 14.3438 6.15024 14.3438 6.15053C14.3438 6.15083 14.3438 6.15112 14.3438 6.15142C14.3438 6.15172 14.3438 6.15201 14.3438 6.15231C14.3438 6.15261 14.3438 6.1529 14.3438 6.1532C14.3438 6.1535 14.3438 6.15379 14.3438 6.15409C14.3438 6.15439 14.3438 6.15469 14.3438 6.15498C14.3438 6.15528 14.3438 6.15558 14.3438 6.15587C14.3438 6.15617 14.3438 6.15647 14.3438 6.15677C14.3438 6.15706 14.3438 6.15736 14.3438 6.15766C14.3438 6.15796 14.3438 6.15826 14.3438 6.15855C14.3438 6.15885 14.3438 6.15915 14.3438 6.15945C14.3438 6.15975 14.3438 6.16005 14.3438 6.16034C14.3438 6.16064 14.3438 6.16094 14.3438 6.16124C14.3438 6.16154 14.3438 6.16184 14.3438 6.16214C14.3438 6.16243 14.3438 6.16273 14.3438 6.16303C14.3438 6.16333 14.3438 6.16363 14.3438 6.16393C14.3438 6.16423 14.3438 6.16453 14.3438 6.16483C14.3438 6.16513 14.3438 6.16543 14.3438 6.16573C14.3438 6.16603 14.3438 6.16633 14.3438 6.16663C14.3438 6.16693 14.3438 6.16723 14.3438 6.16753C14.3438 6.16783 14.3438 6.16813 14.3438 6.16843C14.3438 6.16873 14.3438 6.16903 14.3438 6.16933C14.3438 6.16963 14.3438 6.16993 14.3438 6.17023C14.3438 6.17053 14.3438 6.17083 14.3438 6.17113C14.3438 6.17143 14.3438 6.17174 14.3438 6.17204C14.3438 6.17234 14.3438 6.17264 14.3438 6.17294C14.3438 6.17324 14.3438 6.17354 14.3438 6.17385C14.3438 6.17415 14.3438 6.17445 14.3438 6.17475C14.3438 6.17505 14.3438 6.17536 14.3438 6.17566C14.3438 6.17596 14.3438 6.17626 14.3438 6.17656C14.3438 6.17687 14.3438 6.17717 14.3438 6.17747C14.3438 6.17777 14.3438 6.17808 14.3438 6.17838C14.3438 6.17868 14.3438 6.17899 14.3438 6.17929C14.3438 6.17959 14.3438 6.1799 14.3438 6.1802C14.3438 6.1805 14.3438 6.18081 14.3438 6.18111C14.3438 6.18141 14.3438 6.18172 14.3438 6.18202C14.3438 6.18232 14.3438 6.18263 14.3438 6.18293C14.3438 6.18324 14.3438 6.18354 14.3438 6.18384C14.3438 6.18415 14.3438 6.18445 14.3438 6.18476C14.3438 6.18506 14.3438 6.18537 14.3438 6.18567C14.3438 6.18598 14.3438 6.18628 14.3438 6.18658C14.3438 6.18689 14.3438 6.18719 14.3438 6.1875H15.3438H16.3438C16.3438 6.18719 16.3438 6.18689 16.3438 6.18658C16.3438 6.18628 16.3438 6.18598 16.3438 6.18567C16.3438 6.18537 16.3438 6.18506 16.3438 6.18476C16.3438 6.18445 16.3438 6.18415 16.3438 6.18384C16.3438 6.18354 16.3438 6.18324 16.3438 6.18293C16.3438 6.18263 16.3438 6.18232 16.3438 6.18202C16.3438 6.18172 16.3438 6.18141 16.3438 6.18111C16.3438 6.18081 16.3438 6.1805 16.3438 6.1802C16.3438 6.1799 16.3438 6.17959 16.3438 6.17929C16.3438 6.17899 16.3438 6.17868 16.3438 6.17838C16.3438 6.17808 16.3438 6.17777 16.3438 6.17747C16.3438 6.17717 16.3438 6.17687 16.3438 6.17656C16.3438 6.17626 16.3438 6.17596 16.3438 6.17566C16.3438 6.17536 16.3438 6.17505 16.3438 6.17475C16.3438 6.17445 16.3438 6.17415 16.3438 6.17385C16.3438 6.17354 16.3438 6.17324 16.3438 6.17294C16.3438 6.17264 16.3438 6.17234 16.3438 6.17204C16.3438 6.17174 16.3438 6.17143 16.3438 6.17113C16.3438 6.17083 16.3438 6.17053 16.3438 6.17023C16.3438 6.16993 16.3438 6.16963 16.3438 6.16933C16.3438 6.16903 16.3438 6.16873 16.3438 6.16843C16.3438 6.16813 16.3438 6.16783 16.3438 6.16753C16.3438 6.16723 16.3438 6.16693 16.3438 6.16663C16.3438 6.16633 16.3438 6.16603 16.3438 6.16573C16.3438 6.16543 16.3438 6.16513 16.3438 6.16483C16.3438 6.16453 16.3438 6.16423 16.3438 6.16393C16.3438 6.16363 16.3438 6.16333 16.3438 6.16303C16.3438 6.16273 16.3438 6.16243 16.3438 6.16214C16.3438 6.16184 16.3438 6.16154 16.3438 6.16124C16.3438 6.16094 16.3438 6.16064 16.3438 6.16034C16.3438 6.16005 16.3438 6.15975 16.3438 6.15945C16.3438 6.15915 16.3438 6.15885 16.3438 6.15855C16.3438 6.15826 16.3438 6.15796 16.3438 6.15766C16.3438 6.15736 16.3438 6.15706 16.3438 6.15677C16.3438 6.15647 16.3438 6.15617 16.3438 6.15587C16.3438 6.15558 16.3438 6.15528 16.3438 6.15498C16.3438 6.15469 16.3438 6.15439 16.3438 6.15409C16.3438 6.15379 16.3438 6.1535 16.3438 6.1532C16.3438 6.1529 16.3438 6.15261 16.3438 6.15231C16.3438 6.15201 16.3438 6.15172 16.3438 6.15142C16.3438 6.15112 16.3438 6.15083 16.3438 6.15053C16.3438 6.15024 16.3438 6.14994 16.3438 6.14964C16.3438 6.14935 16.3438 6.14905 16.3438 6.14876C16.3438 6.14846 16.3438 6.14817 16.3438 6.14787C16.3438 6.14757 16.3438 6.14728 16.3438 6.14698C16.3438 6.14669 16.3438 6.14639 16.3438 6.1461C16.3438 6.1458 16.3438 6.14551 16.3438 6.14521C16.3438 6.14492 16.3438 6.14462 16.3438 6.14433C16.3438 6.14403 16.3438 6.14374 16.3438 6.14344C16.3438 6.14315 16.3438 6.14285 16.3438 6.14256C16.3438 6.14227 16.3438 6.14197 16.3438 6.14168C16.3438 6.14138 16.3438 6.14109 16.3438 6.14079C16.3438 6.1405 16.3438 6.14021 16.3438 6.13991C16.3438 6.13962 16.3438 6.13932 16.3438 6.13903C16.3438 6.13874 16.3438 6.13844 16.3438 6.13815C16.3438 6.13786 16.3438 6.13756 16.3438 6.13727C16.3438 6.13698 16.3438 6.13668 16.3438 6.13639C16.3438 6.1361 16.3438 6.1358 16.3438 6.13551C16.3438 6.13522 16.3438 6.13493 16.3438 6.13463C16.3438 6.13434 16.3438 6.13405 16.3438 6.13376C16.3438 6.13346 16.3438 6.13317 16.3438 6.13288C16.3438 6.13259 16.3438 6.13229 16.3438 6.132C16.3438 6.13171 16.3438 6.13142 16.3438 6.13112C16.3438 6.13083 16.3438 6.13054 16.3438 6.13025C16.3438 6.12996 16.3438 6.12967 16.3438 6.12937C16.3438 6.12908 16.3438 6.12879 16.3438 6.1285C16.3438 6.12821 16.3438 6.12792 16.3438 6.12763C16.3438 6.12733 16.3438 6.12704 16.3438 6.12675C16.3438 6.12646 16.3438 6.12617 16.3438 6.12588C16.3438 6.12559 16.3438 6.1253 16.3438 6.12501C16.3438 6.12471 16.3438 6.12442 16.3438 6.12413C16.3438 6.12384 16.3438 6.12355 16.3438 6.12326C16.3438 6.12297 16.3438 6.12268 16.3438 6.12239C16.3438 6.1221 16.3438 6.12181 16.3438 6.12152C16.3438 6.12123 16.3438 6.12094 16.3438 6.12065C16.3438 6.12036 16.3438 6.12007 16.3438 6.11978C16.3438 6.11949 16.3438 6.1192 16.3438 6.11891C16.3438 6.11862 16.3438 6.11833 16.3438 6.11804C16.3438 6.11775 16.3438 6.11746 16.3438 6.11718C16.3438 6.11689 16.3438 6.1166 16.3438 6.11631C16.3438 6.11602 16.3438 6.11573 16.3438 6.11544C16.3438 6.11515 16.3438 6.11486 16.3438 6.11457C16.3438 6.11429 16.3438 6.114 16.3438 6.11371C16.3438 6.11342 16.3438 6.11313 16.3438 6.11284C16.3438 6.11255 16.3438 6.11227 16.3438 6.11198C16.3438 6.11169 16.3438 6.1114 16.3438 6.11111C16.3438 6.11083 16.3438 6.11054 16.3438 6.11025C16.3438 6.10996 16.3438 6.10967 16.3438 6.10939C16.3438 6.1091 16.3438 6.10881 16.3438 6.10852C16.3438 6.10823 16.3438 6.10795 16.3438 6.10766C16.3438 6.10737 16.3438 6.10708 16.3438 6.1068C16.3438 6.10651 16.3438 6.10622 16.3438 6.10594C16.3438 6.10565 16.3438 6.10536 16.3438 6.10507C16.3438 6.10479 16.3438 6.1045 16.3438 6.10421C16.3438 6.10393 16.3438 6.10364 16.3438 6.10335C16.3438 6.10307 16.3438 6.10278 16.3438 6.10249C16.3438 6.10221 16.3438 6.10192 16.3438 6.10163C16.3438 6.10135 16.3438 6.10106 16.3438 6.10077C16.3438 6.10049 16.3438 6.1002 16.3438 6.09992C16.3438 6.09963 16.3438 6.09934 16.3438 6.09906C16.3438 6.09877 16.3438 6.09849 16.3438 6.0982C16.3438 6.09791 16.3438 6.09763 16.3438 6.09734C16.3438 6.09706 16.3438 6.09677 16.3438 6.09649C16.3438 6.0962 16.3438 6.09591 16.3438 6.09563C16.3438 6.09534 16.3438 6.09506 16.3438 6.09477C16.3438 6.09449 16.3438 6.0942 16.3438 6.09392C16.3438 6.09363 16.3438 6.09335 16.3438 6.09306C16.3438 6.09278 16.3438 6.09249 16.3438 6.09221C16.3438 6.09192 16.3438 6.09164 16.3438 6.09135C16.3438 6.09107 16.3438 6.09078 16.3438 6.0905C16.3438 6.09021 16.3438 6.08993 16.3438 6.08965C16.3438 6.08936 16.3438 6.08908 16.3438 6.08879C16.3438 6.08851 16.3438 6.08822 16.3438 6.08794C16.3438 6.08766 16.3438 6.08737 16.3438 6.08709C16.3438 6.0868 16.3438 6.08652 16.3438 6.08624C16.3438 6.08595 16.3438 6.08567 16.3438 6.08538C16.3438 6.0851 16.3438 6.08482 16.3438 6.08453C16.3438 6.08425 16.3438 6.08397 16.3438 6.08368C16.3438 6.0834 16.3438 6.08312 16.3438 6.08283C16.3438 6.08255 16.3438 6.08227 16.3438 6.08198C16.3438 6.0817 16.3438 6.08142 16.3438 6.08113C16.3438 6.08085 16.3438 6.08057 16.3438 6.08028C16.3438 6.08 16.3438 6.07972 16.3438 6.07943C16.3438 6.07915 16.3438 6.07887 16.3438 6.07859C16.3438 6.0783 16.3438 6.07802 16.3438 6.07774C16.3438 6.07745 16.3438 6.07717 16.3438 6.07689C16.3438 6.07661 16.3438 6.07632 16.3438 6.07604C16.3438 6.07576 16.3438 6.07548 16.3438 6.0752C16.3438 6.07491 16.3438 6.07463 16.3438 6.07435C16.3438 6.07407 16.3438 6.07378 16.3438 6.0735C16.3438 6.07322 16.3438 6.07294 16.3438 6.07266C16.3438 6.07237 16.3438 6.07209 16.3438 6.07181C16.3438 6.07153 16.3438 6.07125 16.3438 6.07097C16.3438 6.07068 16.3438 6.0704 16.3438 6.07012C16.3438 6.06984 16.3438 6.06956 16.3438 6.06928C16.3438 6.06899 16.3438 6.06871 16.3438 6.06843C16.3438 6.06815 16.3438 6.06787 16.3438 6.06759C16.3438 6.06731 16.3438 6.06703 16.3438 6.06674C16.3438 6.06646 16.3438 6.06618 16.3438 6.0659C16.3438 6.06562 16.3438 6.06534 16.3438 6.06506C16.3438 6.06478 16.3438 6.0645 16.3438 6.06422C16.3438 6.06393 16.3438 6.06365 16.3438 6.06337C16.3438 6.06309 16.3438 6.06281 16.3438 6.06253C16.3438 6.06225 16.3438 6.06197 16.3438 6.06169C16.3438 6.06141 16.3438 6.06113 16.3438 6.06085C16.3438 6.06057 16.3438 6.06029 16.3438 6.06001C16.3438 6.05973 16.3438 6.05945 16.3438 6.05917C16.3438 6.05889 16.3438 6.05861 16.3438 6.05833C16.3438 6.05805 16.3438 6.05777 16.3438 6.05749C16.3438 6.05721 16.3438 6.05693 16.3438 6.05665C16.3438 6.05637 16.3438 6.05609 16.3438 6.05581C16.3438 6.05553 16.3438 6.05525 16.3438 6.05497C16.3438 6.05469 16.3438 6.05441 16.3438 6.05413C16.3438 6.05385 16.3438 6.05357 16.3438 6.05329C16.3438 6.05301 16.3438 6.05273 16.3438 6.05245C16.3438 6.05217 16.3438 6.05189 16.3438 6.05161C16.3438 6.05133 16.3438 6.05105 16.3438 6.05078C16.3438 6.0505 16.3438 6.05022 16.3438 6.04994C16.3438 6.04966 16.3438 6.04938 16.3438 6.0491C16.3438 6.04882 16.3438 6.04854 16.3438 6.04826C16.3438 6.04798 16.3438 6.04771 16.3438 6.04743C16.3438 6.04715 16.3438 6.04687 16.3438 6.04659C16.3438 6.04631 16.3438 6.04603 16.3438 6.04575C16.3438 6.04548 16.3438 6.0452 16.3438 6.04492C16.3438 6.04464 16.3438 6.04436 16.3438 6.04408C16.3438 6.0438 16.3438 6.04353 16.3438 6.04325C16.3438 6.04297 16.3438 6.04269 16.3438 6.04241C16.3438 6.04213 16.3438 6.04186 16.3438 6.04158C16.3438 6.0413 16.3438 6.04102 16.3438 6.04074C16.3438 6.04046 16.3438 6.04019 16.3438 6.03991C16.3438 6.03963 16.3438 6.03935 16.3438 6.03907C16.3438 6.0388 16.3438 6.03852 16.3438 6.03824C16.3438 6.03796 16.3438 6.03768 16.3438 6.03741C16.3438 6.03713 16.3438 6.03685 16.3438 6.03657C16.3438 6.03629 16.3438 6.03602 16.3438 6.03574C16.3438 6.03546 16.3438 6.03518 16.3438 6.03491C16.3438 6.03463 16.3438 6.03435 16.3438 6.03407C16.3438 6.0338 16.3438 6.03352 16.3438 6.03324C16.3438 6.03296 16.3438 6.03269 16.3438 6.03241C16.3438 6.03213 16.3438 6.03185 16.3438 6.03158C16.3438 6.0313 16.3438 6.03102 16.3438 6.03074C16.3438 6.03047 16.3438 6.03019 16.3438 6.02991C16.3438 6.02964 16.3438 6.02936 16.3438 6.02908C16.3438 6.0288 16.3438 6.02853 16.3438 6.02825C16.3438 6.02797 16.3438 6.0277 16.3438 6.02742C16.3438 6.02714 16.3438 6.02686 16.3438 6.02659C16.3438 6.02631 16.3438 6.02603 16.3438 6.02576C16.3438 6.02548 16.3438 6.0252 16.3438 6.02493C16.3438 6.02465 16.3438 6.02437 16.3438 6.0241C16.3438 6.02382 16.3438 6.02354 16.3438 6.02327C16.3438 6.02299 16.3438 6.02271 16.3438 6.02244C16.3438 6.02216 16.3438 6.02188 16.3438 6.02161C16.3438 6.02133 16.3438 6.02105 16.3438 6.02078C16.3438 6.0205 16.3438 6.02022 16.3438 6.01995C16.3438 6.01967 16.3438 6.01939 16.3438 6.01912C16.3438 6.01884 16.3438 6.01857 16.3438 6.01829C16.3438 6.01801 16.3438 6.01774 16.3438 6.01746C16.3438 6.01718 16.3438 6.01691 16.3438 6.01663C16.3438 6.01636 16.3438 6.01608 16.3438 6.0158C16.3438 6.01553 16.3438 6.01525 16.3438 6.01497C16.3438 6.0147 16.3438 6.01442 16.3438 6.01415C16.3438 6.01387 16.3438 6.01359 16.3438 6.01332C16.3438 6.01304 16.3438 6.01277 16.3438 6.01249C16.3438 6.01221 16.3438 6.01194 16.3438 6.01166C16.3438 6.01139 16.3438 6.01111 16.3438 6.01083C16.3438 6.01056 16.3438 6.01028 16.3438 6.01001C16.3438 6.00973 16.3438 6.00946 16.3438 6.00918C16.3438 6.0089 16.3438 6.00863 16.3438 6.00835C16.3438 6.00808 16.3438 6.0078 16.3438 6.00753C16.3438 6.00725 16.3438 6.00697 16.3438 6.0067C16.3438 6.00642 16.3438 6.00615 16.3438 6.00587C16.3438 6.0056 16.3438 6.00532 16.3438 6.00504C16.3438 6.00477 16.3438 6.00449 16.3438 6.00422C16.3438 6.00394 16.3438 6.00367 16.3438 6.00339C16.3438 6.00312 16.3438 6.00284 16.3438 6.00257C16.3438 6.00229 16.3438 6.00201 16.3438 6.00174C16.3438 6.00146 16.3438 6.00119 16.3438 6.00091C16.3438 6.00064 16.3438 6.00036 16.3438 6.00009C16.3438 5.99981 16.3438 5.99954 16.3438 5.99926C16.3438 5.99899 16.3438 5.99871 16.3438 5.99843C16.3438 5.99816 16.3438 5.99788 16.3438 5.99761C16.3438 5.99733 16.3438 5.99706 16.3438 5.99678C16.3438 5.99651 16.3438 5.99623 16.3438 5.99596C16.3438 5.99568 16.3438 5.99541 16.3438 5.99513C16.3438 5.99486 16.3438 5.99458 16.3438 5.99431C16.3438 5.99403 16.3438 5.99376 16.3438 5.99348C16.3438 5.99321 16.3438 5.99293 16.3438 5.99266C16.3438 5.99238 16.3438 5.99211 16.3438 5.99183C16.3438 5.99156 16.3438 5.99128 16.3438 5.99101C16.3438 5.99073 16.3438 5.99046 16.3438 5.99018C16.3438 5.98991 16.3438 5.98963 16.3438 5.98936C16.3438 5.98908 16.3438 5.98881 16.3438 5.98853C16.3438 5.98826 16.3438 5.98798 16.3438 5.98771C16.3438 5.98743 16.3438 5.98716 16.3438 5.98688C16.3438 5.98661 16.3438 5.98633 16.3438 5.98606C16.3438 5.98578 16.3438 5.98551 16.3438 5.98523C16.3438 5.98496 16.3438 5.98468 16.3438 5.98441C16.3438 5.98413 16.3438 5.98386 16.3438 5.98358C16.3438 5.98331 16.3438 5.98303 16.3438 5.98276C16.3438 5.98249 16.3438 5.98221 16.3438 5.98194C16.3438 5.98166 16.3438 5.98139 16.3438 5.98111C16.3438 5.98084 16.3438 5.98056 16.3438 5.98029C16.3438 5.98001 16.3438 5.97974 16.3438 5.97946C16.3438 5.97919 16.3438 5.97891 16.3438 5.97864C16.3438 5.97836 16.3438 5.97809 16.3438 5.97781C16.3438 5.97754 16.3438 5.97726 16.3438 5.97699C16.3438 5.97672 16.3438 5.97644 16.3438 5.97617C16.3438 5.97589 16.3438 5.97562 16.3438 5.97534C16.3438 5.97507 16.3438 5.97479 16.3438 5.97452C16.3438 5.97424 16.3438 5.97397 16.3438 5.97369C16.3438 5.97342 16.3438 5.97314 16.3438 5.97287C16.3438 5.9726 16.3438 5.97232 16.3438 5.97205C16.3438 5.97177 16.3438 5.9715 16.3438 5.97122C16.3438 5.97095 16.3438 5.97067 16.3438 5.9704C16.3438 5.97012 16.3438 5.96985 16.3438 5.96957C16.3438 5.9693 16.3438 5.96902 16.3438 5.96875C16.3438 5.96848 16.3438 5.9682 16.3438 5.96793C16.3438 5.96765 16.3438 5.96738 16.3438 5.9671C16.3438 5.96683 16.3438 5.96655 16.3438 5.96628C16.3438 5.966 16.3438 5.96573 16.3438 5.96545C16.3438 5.96518 16.3438 5.9649 16.3438 5.96463C16.3438 5.96436 16.3438 5.96408 16.3438 5.96381C16.3438 5.96353 16.3438 5.96326 16.3438 5.96298C16.3438 5.96271 16.3438 5.96243 16.3438 5.96216C16.3438 5.96188 16.3438 5.96161 16.3438 5.96133C16.3438 5.96106 16.3438 5.96078 16.3438 5.96051C16.3438 5.96024 16.3438 5.95996 16.3438 5.95969C16.3438 5.95941 16.3438 5.95914 16.3438 5.95886C16.3438 5.95859 16.3438 5.95831 16.3438 5.95804C16.3438 5.95776 16.3438 5.95749 16.3438 5.95721C16.3438 5.95694 16.3438 5.95666 16.3438 5.95639C16.3438 5.95611 16.3438 5.95584 16.3438 5.95556C16.3438 5.95529 16.3438 5.95501 16.3438 5.95474C16.3438 5.95447 16.3438 5.95419 16.3438 5.95392C16.3438 5.95364 16.3438 5.95337 16.3438 5.95309C16.3438 5.95282 16.3438 5.95254 16.3438 5.95227C16.3438 5.95199 16.3438 5.95172 16.3438 5.95144C16.3438 5.95117 16.3438 5.95089 16.3438 5.95062C16.3438 5.95034 16.3438 5.95007 16.3438 5.94979C16.3438 5.94952 16.3438 5.94924 16.3438 5.94897C16.3438 5.94869 16.3438 5.94842 16.3438 5.94814C16.3438 5.94787 16.3438 5.94759 16.3438 5.94732C16.3438 5.94704 16.3438 5.94677 16.3438 5.94649C16.3438 5.94622 16.3438 5.94594 16.3438 5.94567C16.3438 5.94539 16.3438 5.94512 16.3438 5.94484C16.3438 5.94457 16.3438 5.94429 16.3438 5.94402C16.3438 5.94374 16.3438 5.94347 16.3438 5.94319C16.3438 5.94292 16.3438 5.94264 16.3438 5.94237C16.3438 5.94209 16.3438 5.94182 16.3438 5.94154C16.3438 5.94127 16.3438 5.94099 16.3438 5.94072C16.3438 5.94044 16.3438 5.94017 16.3438 5.93989C16.3438 5.93962 16.3438 5.93934 16.3438 5.93907C16.3438 5.93879 16.3438 5.93851 16.3438 5.93824C16.3438 5.93796 16.3438 5.93769 16.3438 5.93741C16.3438 5.93714 16.3438 5.93686 16.3438 5.93659C16.3438 5.93631 16.3438 5.93604 16.3438 5.93576C16.3438 5.93549 16.3438 5.93521 16.3438 5.93493C16.3438 5.93466 16.3438 5.93438 16.3438 5.93411C16.3438 5.93383 16.3438 5.93356 16.3438 5.93328C16.3438 5.93301 16.3438 5.93273 16.3438 5.93246C16.3438 5.93218 16.3438 5.9319 16.3438 5.93163C16.3438 5.93135 16.3438 5.93108 16.3438 5.9308C16.3438 5.93053 16.3438 5.93025 16.3438 5.92997C16.3438 5.9297 16.3438 5.92942 16.3438 5.92915C16.3438 5.92887 16.3438 5.9286 16.3438 5.92832C16.3438 5.92804 16.3438 5.92777 16.3438 5.92749C16.3438 5.92722 16.3438 5.92694 16.3438 5.92667C16.3438 5.92639 16.3438 5.92611 16.3438 5.92584C16.3438 5.92556 16.3438 5.92529 16.3438 5.92501C16.3438 5.92473 16.3438 5.92446 16.3438 5.92418C16.3438 5.92391 16.3438 5.92363 16.3438 5.92335C16.3438 5.92308 16.3438 5.9228 16.3438 5.92253C16.3438 5.92225 16.3438 5.92197 16.3438 5.9217C16.3438 5.92142 16.3438 5.92114 16.3438 5.92087C16.3438 5.92059 16.3438 5.92032 16.3438 5.92004C16.3438 5.91976 16.3438 5.91949 16.3438 5.91921C16.3438 5.91893 16.3438 5.91866 16.3438 5.91838C16.3438 5.91811 16.3438 5.91783 16.3438 5.91755C16.3438 5.91728 16.3438 5.917 16.3438 5.91672C16.3438 5.91645 16.3438 5.91617 16.3438 5.91589C16.3438 5.91562 16.3438 5.91534 16.3438 5.91506C16.3438 5.91479 16.3438 5.91451 16.3438 5.91423C16.3438 5.91396 16.3438 5.91368 16.3438 5.9134C16.3438 5.91313 16.3438 5.91285 16.3438 5.91257C16.3438 5.9123 16.3438 5.91202 16.3438 5.91174C16.3438 5.91147 16.3438 5.91119 16.3438 5.91091C16.3438 5.91064 16.3438 5.91036 16.3438 5.91008C16.3438 5.9098 16.3438 5.90953 16.3438 5.90925C16.3438 5.90897 16.3438 5.9087 16.3438 5.90842C16.3438 5.90814 16.3438 5.90786 16.3438 5.90759C16.3438 5.90731 16.3438 5.90703 16.3438 5.90676C16.3438 5.90648 16.3438 5.9062 16.3438 5.90592C16.3438 5.90565 16.3438 5.90537 16.3438 5.90509C16.3438 5.90481 16.3438 5.90454 16.3438 5.90426C16.3438 5.90398 16.3438 5.9037 16.3438 5.90343C16.3438 5.90315 16.3438 5.90287 16.3438 5.90259C16.3438 5.90232 16.3438 5.90204 16.3438 5.90176C16.3438 5.90148 16.3438 5.90121 16.3438 5.90093C16.3438 5.90065 16.3438 5.90037 16.3438 5.90009C16.3438 5.89982 16.3438 5.89954 16.3438 5.89926C16.3438 5.89898 16.3438 5.8987 16.3438 5.89843C16.3438 5.89815 16.3438 5.89787 16.3438 5.89759C16.3438 5.89731 16.3438 5.89704 16.3438 5.89676C16.3438 5.89648 16.3438 5.8962 16.3438 5.89592C16.3438 5.89564 16.3438 5.89537 16.3438 5.89509C16.3438 5.89481 16.3438 5.89453 16.3438 5.89425C16.3438 5.89397 16.3438 5.8937 16.3438 5.89342C16.3438 5.89314 16.3438 5.89286 16.3438 5.89258C16.3438 5.8923 16.3438 5.89202 16.3438 5.89175C16.3438 5.89147 16.3438 5.89119 16.3438 5.89091C16.3438 5.89063 16.3438 5.89035 16.3438 5.89007C16.3438 5.88979 16.3438 5.88952 16.3438 5.88924C16.3438 5.88896 16.3438 5.88868 16.3438 5.8884C16.3438 5.88812 16.3438 5.88784 16.3438 5.88756C16.3438 5.88728 16.3438 5.887 16.3438 5.88672C16.3438 5.88645 16.3438 5.88617 16.3438 5.88589C16.3438 5.88561 16.3438 5.88533 16.3438 5.88505C16.3438 5.88477 16.3438 5.88449 16.3438 5.88421C16.3438 5.88393 16.3438 5.88365 16.3438 5.88337C16.3438 5.88309 16.3438 5.88281 16.3438 5.88253C16.3438 5.88225 16.3438 5.88197 16.3438 5.88169C16.3438 5.88141 16.3438 5.88113 16.3438 5.88085C16.3438 5.88057 16.3438 5.88029 16.3438 5.88001C16.3438 5.87973 16.3438 5.87945 16.3438 5.87917C16.3438 5.87889 16.3438 5.87861 16.3438 5.87833C16.3438 5.87805 16.3438 5.87777 16.3438 5.87749C16.3438 5.87721 16.3438 5.87693 16.3438 5.87665C16.3438 5.87637 16.3438 5.87609 16.3438 5.87581C16.3438 5.87553 16.3438 5.87525 16.3438 5.87497C16.3438 5.87469 16.3438 5.87441 16.3438 5.87413C16.3438 5.87385 16.3438 5.87357 16.3438 5.87328C16.3438 5.873 16.3438 5.87272 16.3438 5.87244C16.3438 5.87216 16.3438 5.87188 16.3438 5.8716C16.3438 5.87132 16.3438 5.87104 16.3438 5.87076C16.3438 5.87047 16.3438 5.87019 16.3438 5.86991C16.3438 5.86963 16.3438 5.86935 16.3438 5.86907C16.3438 5.86879 16.3438 5.86851 16.3438 5.86822C16.3438 5.86794 16.3438 5.86766 16.3438 5.86738C16.3438 5.8671 16.3438 5.86682 16.3438 5.86653C16.3438 5.86625 16.3438 5.86597 16.3438 5.86569C16.3438 5.86541 16.3438 5.86513 16.3438 5.86484C16.3438 5.86456 16.3438 5.86428 16.3438 5.864C16.3438 5.86372 16.3438 5.86343 16.3438 5.86315C16.3438 5.86287 16.3438 5.86259 16.3438 5.8623C16.3438 5.86202 16.3438 5.86174 16.3438 5.86146C16.3438 5.86118 16.3438 5.86089 16.3438 5.86061C16.3438 5.86033 16.3438 5.86005 16.3438 5.85976C16.3438 5.85948 16.3438 5.8592 16.3438 5.85891C16.3438 5.85863 16.3438 5.85835 16.3438 5.85807C16.3438 5.85778 16.3438 5.8575 16.3438 5.85722C16.3438 5.85693 16.3438 5.85665 16.3438 5.85637C16.3438 5.85608 16.3438 5.8558 16.3438 5.85552C16.3438 5.85523 16.3438 5.85495 16.3438 5.85467C16.3438 5.85438 16.3438 5.8541 16.3438 5.85382C16.3438 5.85353 16.3438 5.85325 16.3438 5.85297C16.3438 5.85268 16.3438 5.8524 16.3438 5.85212C16.3438 5.85183 16.3438 5.85155 16.3438 5.85126C16.3438 5.85098 16.3438 5.8507 16.3438 5.85041C16.3438 5.85013 16.3438 5.84984 16.3438 5.84956C16.3438 5.84928 16.3438 5.84899 16.3438 5.84871C16.3438 5.84842 16.3438 5.84814 16.3438 5.84785C16.3438 5.84757 16.3438 5.84729 16.3438 5.847C16.3438 5.84672 16.3438 5.84643 16.3438 5.84615C16.3438 5.84586 16.3438 5.84558 16.3438 5.84529C16.3438 5.84501 16.3438 5.84472 16.3438 5.84444C16.3438 5.84415 16.3438 5.84387 16.3438 5.84358C16.3438 5.8433 16.3438 5.84301 16.3438 5.84273C16.3438 5.84244 16.3438 5.84216 16.3438 5.84187C16.3438 5.84159 16.3438 5.8413 16.3438 5.84101C16.3438 5.84073 16.3438 5.84044 16.3438 5.84016C16.3438 5.83987 16.3438 5.83959 16.3438 5.8393C16.3438 5.83901 16.3438 5.83873 16.3438 5.83844C16.3438 5.83816 16.3438 5.83787 16.3438 5.83758C16.3438 5.8373 16.3438 5.83701 16.3438 5.83673C16.3438 5.83644 16.3438 5.83615 16.3438 5.83587C16.3438 5.83558 16.3438 5.83529 16.3438 5.83501C16.3438 5.83472 16.3438 5.83443 16.3438 5.83415C16.3438 5.83386 16.3438 5.83357 16.3438 5.83329C16.3438 5.833 16.3438 5.83271 16.3438 5.83243C16.3438 5.83214 16.3438 5.83185 16.3438 5.83156C16.3438 5.83128 16.3438 5.83099 16.3438 5.8307C16.3438 5.83042 16.3438 5.83013 16.3438 5.82984C16.3438 5.82955 16.3438 5.82927 16.3438 5.82898C16.3438 5.82869 16.3438 5.8284 16.3438 5.82811C16.3438 5.82783 16.3438 5.82754 16.3438 5.82725C16.3438 5.82696 16.3438 5.82667 16.3438 5.82639C16.3438 5.8261 16.3438 5.82581 16.3438 5.82552C16.3438 5.82523 16.3438 5.82495 16.3438 5.82466C16.3438 5.82437 16.3438 5.82408 16.3438 5.82379C16.3438 5.8235 16.3438 5.82321 16.3438 5.82293C16.3438 5.82264 16.3438 5.82235 16.3438 5.82206C16.3438 5.82177 16.3438 5.82148 16.3438 5.82119C16.3438 5.8209 16.3438 5.82061 16.3438 5.82032C16.3438 5.82004 16.3438 5.81975 16.3438 5.81946C16.3438 5.81917 16.3438 5.81888 16.3438 5.81859C16.3438 5.8183 16.3438 5.81801 16.3438 5.81772C16.3438 5.81743 16.3438 5.81714 16.3438 5.81685C16.3438 5.81656 16.3438 5.81627 16.3438 5.81598C16.3438 5.81569 16.3438 5.8154 16.3438 5.81511C16.3438 5.81482 16.3438 5.81453 16.3438 5.81424C16.3438 5.81395 16.3438 5.81366 16.3438 5.81337C16.3438 5.81308 16.3438 5.81279 16.3438 5.81249C16.3438 5.8122 16.3438 5.81191 16.3438 5.81162C16.3438 5.81133 16.3438 5.81104 16.3438 5.81075C16.3438 5.81046 16.3438 5.81017 16.3438 5.80987C16.3438 5.80958 16.3438 5.80929 16.3438 5.809C16.3438 5.80871 16.3438 5.80842 16.3438 5.80813C16.3438 5.80783 16.3438 5.80754 16.3438 5.80725C16.3438 5.80696 16.3438 5.80667 16.3438 5.80638C16.3438 5.80608 16.3438 5.80579 16.3438 5.8055C16.3438 5.80521 16.3438 5.80491 16.3438 5.80462C16.3438 5.80433 16.3438 5.80404 16.3438 5.80374C16.3438 5.80345 16.3438 5.80316 16.3438 5.80287C16.3438 5.80257 16.3438 5.80228 16.3438 5.80199C16.3438 5.8017 16.3438 5.8014 16.3438 5.80111C16.3438 5.80082 16.3438 5.80052 16.3438 5.80023C16.3438 5.79994 16.3438 5.79964 16.3438 5.79935C16.3438 5.79906 16.3438 5.79876 16.3438 5.79847C16.3438 5.79818 16.3438 5.79788 16.3438 5.79759C16.3438 5.79729 16.3438 5.797 16.3438 5.79671C16.3438 5.79641 16.3438 5.79612 16.3438 5.79582C16.3438 5.79553 16.3438 5.79523 16.3438 5.79494C16.3438 5.79465 16.3438 5.79435 16.3438 5.79406C16.3438 5.79376 16.3438 5.79347 16.3438 5.79317C16.3438 5.79288 16.3438 5.79258 16.3438 5.79229C16.3438 5.79199 16.3438 5.7917 16.3438 5.7914C16.3438 5.79111 16.3438 5.79081 16.3438 5.79052C16.3438 5.79022 16.3438 5.78993 16.3438 5.78963C16.3438 5.78933 16.3438 5.78904 16.3438 5.78874C16.3438 5.78845 16.3438 5.78815 16.3438 5.78786C16.3438 5.78756 16.3438 5.78726 16.3438 5.78697C16.3438 5.78667 16.3438 5.78638 16.3438 5.78608C16.3438 5.78578 16.3438 5.78549 16.3438 5.78519C16.3438 5.78489 16.3438 5.7846 16.3438 5.7843C16.3438 5.784 16.3438 5.78371 16.3438 5.78341C16.3438 5.78311 16.3438 5.78281 16.3438 5.78252C16.3438 5.78222 16.3438 5.78192 16.3438 5.78163C16.3438 5.78133 16.3438 5.78103 16.3438 5.78073C16.3438 5.78044 16.3438 5.78014 16.3438 5.77984C16.3438 5.77954 16.3438 5.77924 16.3438 5.77895C16.3438 5.77865 16.3438 5.77835 16.3438 5.77805C16.3438 5.77775 16.3438 5.77745 16.3438 5.77716C16.3438 5.77686 16.3438 5.77656 16.3438 5.77626C16.3438 5.77596 16.3438 5.77566 16.3438 5.77536C16.3438 5.77507 16.3438 5.77477 16.3438 5.77447C16.3438 5.77417 16.3438 5.77387 16.3438 5.77357C16.3438 5.77327 16.3438 5.77297 16.3438 5.77267C16.3438 5.77237 16.3438 5.77207 16.3438 5.77177C16.3438 5.77147 16.3438 5.77117 16.3438 5.77087C16.3438 5.77057 16.3438 5.77027 16.3438 5.76997C16.3438 5.76967 16.3438 5.76937 16.3438 5.76907C16.3438 5.76877 16.3438 5.76847 16.3438 5.76817C16.3438 5.76787 16.3438 5.76757 16.3438 5.76727C16.3438 5.76697 16.3438 5.76667 16.3438 5.76637C16.3438 5.76607 16.3438 5.76576 16.3438 5.76546C16.3438 5.76516 16.3438 5.76486 16.3438 5.76456C16.3438 5.76426 16.3438 5.76396 16.3438 5.76365C16.3438 5.76335 16.3438 5.76305 16.3438 5.76275C16.3438 5.76245 16.3438 5.76214 16.3438 5.76184C16.3438 5.76154 16.3438 5.76124 16.3438 5.76094C16.3438 5.76063 16.3438 5.76033 16.3438 5.76003C16.3438 5.75973 16.3438 5.75942 16.3438 5.75912C16.3438 5.75882 16.3438 5.75851 16.3438 5.75821C16.3438 5.75791 16.3438 5.7576 16.3438 5.7573C16.3438 5.757 16.3438 5.75669 16.3438 5.75639C16.3438 5.75609 16.3438 5.75578 16.3438 5.75548C16.3438 5.75518 16.3438 5.75487 16.3438 5.75457C16.3438 5.75426 16.3438 5.75396 16.3438 5.75366C16.3438 5.75335 16.3438 5.75305 16.3438 5.75274C16.3438 5.75244 16.3438 5.75213 16.3438 5.75183C16.3438 5.75152 16.3438 5.75122 16.3438 5.75092C16.3438 5.75061 16.3438 5.75031 16.3438 5.75H15.3438ZM15.3438 6.1875H14.3438C14.3438 10.1008 11.3958 14.5 6.03125 14.5V15.5V16.5C12.7292 16.5 16.3438 10.9617 16.3438 6.1875H15.3438ZM6.03125 15.5V14.5C4.34899 14.5 2.82024 14.0245 1.54627 13.1936L1 14.0312L0.453732 14.8689C2.05476 15.913 3.96351 16.5 6.03125 16.5V15.5ZM1 14.0312L0.875965 15.0235C1.12072 15.0541 1.42919 15.0938 1.78125 15.0938V14.0938V13.0938C1.57081 13.0938 1.37928 13.0709 1.12403 13.039L1 14.0312ZM1.78125 14.0938V15.0938C3.54872 15.0938 5.16841 14.4796 6.45769 13.4769L5.84375 12.6875L5.22981 11.8981C4.26909 12.6454 3.07628 13.0938 1.78125 13.0938V14.0938ZM5.84375 12.6875L5.86548 11.6877C4.85577 11.6658 4.0148 11.0096 3.73654 10.1106L2.78125 10.4062L1.82596 10.7019C2.3602 12.4279 3.95673 13.6467 5.82202 13.6873L5.84375 12.6875ZM2.78125 10.4062L2.63983 11.3962C2.82935 11.4233 3.09963 11.4688 3.40625 11.4688V10.4688V9.46875C3.27537 9.46875 3.17065 9.45173 2.92267 9.4163L2.78125 10.4062ZM3.40625 10.4688V11.4688C3.81267 11.4688 4.22084 11.3818 4.49254 11.3139L4.25 10.3438L4.00746 9.37361C3.77916 9.43068 3.56233 9.46875 3.40625 9.46875V10.4688ZM4.25 10.3438L4.45395 9.36477C3.40307 9.14583 2.625 8.23031 2.625 7.125H1.625H0.625C0.625 9.20719 2.09693 10.9167 4.04605 11.3227L4.25 10.3438ZM1.625 7.125H2.625V7.09375H1.625H0.625V7.125H1.625ZM1.625 7.09375L1.12886 7.96199C1.73681 8.30939 2.42965 8.46083 3.06628 8.49827L3.125 7.5L3.18372 6.50173C2.75785 6.47667 2.38819 6.37811 2.12114 6.22551L1.625 7.09375ZM3.125 7.5L3.67303 6.66354C3.04304 6.25079 2.65625 5.56221 2.65625 4.78125H1.65625H0.65625C0.65625 6.25029 1.39446 7.56171 2.57697 8.33646L3.125 7.5ZM1.65625 4.78125H2.65625C2.65625 4.32522 2.76936 3.94264 2.95124 3.6395L2.09375 3.125L1.23626 2.6105C0.855641 3.24486 0.65625 3.98728 0.65625 4.78125H1.65625ZM2.09375 3.125L1.32253 3.76157C3.1185 5.93745 5.81129 7.38807 8.81762 7.56085L8.875 6.5625L8.93238 5.56415C6.50121 5.42443 4.319 4.25005 2.86497 2.48843L2.09375 3.125ZM8.875 6.5625L9.84514 6.31996C9.80186 6.14684 9.78125 5.97825 9.78125 5.8125H8.78125H7.78125C7.78125 6.14675 7.82314 6.47816 7.90486 6.80504L8.875 6.5625ZM8.78125 5.8125H9.78125C9.78125 4.55228 10.8023 3.53125 12.0625 3.53125V2.53125V1.53125C9.69772 1.53125 7.78125 3.44772 7.78125 5.8125H8.78125ZM12.0625 2.53125V3.53125C12.7213 3.53125 13.3049 3.79042 13.7446 4.25216L14.4688 3.5625L15.1929 2.87284C14.3826 2.02208 13.2787 1.53125 12.0625 1.53125V2.53125ZM14.4688 3.5625L14.6812 4.53968C15.5031 4.36101 16.3243 4.04035 17.0457 3.60749L16.5312 2.75L16.0168 1.89251C15.4882 2.20965 14.8719 2.45149 14.2563 2.58532L14.4688 3.5625ZM16.5312 2.75L15.5788 2.44522C15.4028 2.99541 15.0593 3.42134 14.585 3.70157L15.0938 4.5625L15.6025 5.42343C16.5032 4.89116 17.1597 4.06709 17.4837 3.05478L16.5312 2.75ZM15.0938 4.5625L15.1886 5.558C15.9636 5.48418 16.7246 5.26532 17.3749 4.97631L16.9688 4.0625L16.5626 3.14869C16.0879 3.35968 15.5364 3.51582 14.9989 3.567L15.0938 4.5625ZM16.9688 4.0625L16.1367 3.5078C15.7719 4.05495 15.2934 4.53774 14.7438 4.95L15.3438 5.75L15.9437 6.55C16.6441 6.02476 17.2906 5.38255 17.8008 4.6172L16.9688 4.0625Z" fill="black" mask="url(#path-1-outside-1_5393_4494)"/>
</svg>
